<svg width="32" height="39" viewBox="0 0 32 39" fill="none" xmlns="http://www.w3.org/2000/svg">
<path d="M17.2114 7.64958H8.28693C6.52881 7.64958 5.09961 6.22038 5.09961 4.46226V3.18733C5.09961 1.4292 6.52881 0 8.28693 0H17.2114C18.9696 0 20.3988 1.4292 20.3988 3.18733V4.46226C20.3988 6.22038 18.9696 7.64958 17.2114 7.64958ZM8.28693 1.27493C7.23257 1.27493 6.37454 2.13296 6.37454 3.18733V4.46226C6.37454 5.51662 7.23257 6.37465 8.28693 6.37465H17.2114C18.2658 6.37465 19.1238 5.51662 19.1238 4.46226V3.18733C19.1238 2.13296 18.2658 1.27493 17.2114 1.27493H8.28693Z" fill="black"/>
<path d="M15.2996 4.46194C15.6516 4.46194 15.937 4.17654 15.937 3.82448C15.937 3.47241 15.6516 3.18701 15.2996 3.18701C14.9475 3.18701 14.6621 3.47241 14.6621 3.82448C14.6621 4.17654 14.9475 4.46194 15.2996 4.46194Z" fill="black"/>
<path d="M15.3003 5.09967C16.0044 5.09967 16.5753 4.52886 16.5753 3.82473C16.5753 3.12061 16.0044 2.5498 15.3003 2.5498C14.5962 2.5498 14.0254 3.12061 14.0254 3.82473C14.0254 4.52886 14.5962 5.09967 15.3003 5.09967Z" fill="black"/>
<path d="M10.2 4.46194C10.552 4.46194 10.8374 4.17654 10.8374 3.82448C10.8374 3.47241 10.552 3.18701 10.2 3.18701C9.8479 3.18701 9.5625 3.47241 9.5625 3.82448C9.5625 4.17654 9.8479 4.46194 10.2 4.46194Z" fill="black"/>
<path d="M10.2007 5.09967C10.9048 5.09967 11.4756 4.52886 11.4756 3.82473C11.4756 3.12061 10.9048 2.5498 10.2007 2.5498C9.49659 2.5498 8.92578 3.12061 8.92578 3.82473C8.92578 4.52886 9.49659 5.09967 10.2007 5.09967Z" fill="black"/>
<path d="M14.6615 10.1998H10.8367C10.4848 10.1998 10.1992 9.91421 10.1992 9.56233V7.01247C10.1992 6.66058 10.4848 6.375 10.8367 6.375H14.6615C15.0134 6.375 15.2989 6.66058 15.2989 7.01247V9.56233C15.2989 9.91421 15.0134 10.1998 14.6615 10.1998ZM11.4741 8.92486H14.024V7.64993H11.4741V8.92486Z" fill="black"/>
<path d="M21.0392 38.2482H4.46513C3.41076 38.2482 2.55273 37.3902 2.55273 36.3358V35.0609C2.55273 33.6891 3.42734 32.4741 4.72904 32.0381C4.9445 31.9654 5.10259 31.7053 5.10259 31.4223V29.9612C5.10259 29.6093 5.38818 29.3237 5.74006 29.3237H19.7643C20.1162 29.3237 20.4018 29.6093 20.4018 29.9612V31.4223C20.4018 31.7066 20.5598 31.9667 20.7779 32.0393C22.077 32.4741 22.9516 33.6891 22.9516 35.0609V36.3358C22.9516 37.3902 22.0936 38.2482 21.0392 38.2482ZM6.37753 30.5987V31.4223C6.37753 32.2624 5.87775 32.9955 5.13447 33.248C4.35166 33.508 3.82766 34.2373 3.82766 35.0609V36.3358C3.82766 36.6865 4.11452 36.9733 4.46513 36.9733H21.0392C21.3898 36.9733 21.6767 36.6865 21.6767 36.3358V35.0609C21.6767 34.2373 21.1527 33.508 20.3724 33.248C19.6266 32.9955 19.1268 32.2624 19.1268 31.4223V30.5987H6.37753Z" fill="black"/>
<path d="M22.3112 35.6988H5.73707C5.38519 35.6988 5.09961 35.4132 5.09961 35.0613C5.09961 34.7094 5.38519 34.4238 5.73707 34.4238H22.3112C22.663 34.4238 22.9486 34.7094 22.9486 35.0613C22.9486 35.4132 22.663 35.6988 22.3112 35.6988Z" fill="black"/>
<path d="M23.5858 22.949H21.0359C20.684 22.949 20.3984 22.6634 20.3984 22.3115V10.8372C20.3984 10.4853 20.684 10.1997 21.0359 10.1997H23.5858C24.6401 10.1997 25.4982 11.0577 25.4982 12.1121V21.0366C25.4982 22.091 24.6401 22.949 23.5858 22.949ZM21.6734 21.6741H23.5858C23.9364 21.6741 24.2232 21.3872 24.2232 21.0366V12.1121C24.2232 11.7615 23.9364 11.4746 23.5858 11.4746H21.6734V21.6741Z" fill="black"/>
<path d="M4.46226 22.9485H1.9124C0.858028 22.9485 0 22.0905 0 21.0361V12.1116C0 11.0572 0.858028 10.1992 1.9124 10.1992H4.46226C4.81414 10.1992 5.09972 10.4848 5.09972 10.8367V22.3111C5.09972 22.6629 4.81414 22.9485 4.46226 22.9485ZM1.9124 11.4741C1.56179 11.4741 1.27493 11.761 1.27493 12.1116V21.0361C1.27493 21.3867 1.56179 21.6736 1.9124 21.6736H3.82479V11.4741H1.9124Z" fill="black"/>
<path d="M28.6862 38.2476H20.3992C20.0473 38.2476 19.7617 37.962 19.7617 37.6101C19.7617 37.2582 20.0473 36.9727 20.3992 36.9727H28.6862C29.0381 36.9727 29.3237 37.2582 29.3237 37.6101C29.3237 37.962 29.0381 38.2476 28.6862 38.2476Z" fill="black"/>
<path d="M31.3619 38.2481H31.2332C30.8813 38.2481 30.5957 37.9625 30.5957 37.6106C30.5957 37.2587 30.8813 36.9731 31.2332 36.9731H31.3619C31.7138 36.9731 31.9994 37.2587 31.9994 37.6106C31.9994 37.9625 31.7138 38.2481 31.3619 38.2481Z" fill="black"/>
<path d="M15.9379 19.1236H9.56325C9.21137 19.1236 8.92578 18.838 8.92578 18.4861C8.92578 18.1342 9.21137 17.8486 9.56325 17.8486H15.9379C16.2898 17.8486 16.5754 18.1342 16.5754 18.4861C16.5754 18.838 16.2898 19.1236 15.9379 19.1236Z" fill="black"/>
<path d="M15.9379 21.6743H9.56325C9.21137 21.6743 8.92578 21.3888 8.92578 21.0369C8.92578 20.685 9.21137 20.3994 9.56325 20.3994H15.9379C16.2898 20.3994 16.5754 20.685 16.5754 21.0369C16.5754 21.3888 16.2898 21.6743 15.9379 21.6743Z" fill="black"/>
<path d="M15.9379 16.5738H9.56325C9.21137 16.5738 8.92578 16.2882 8.92578 15.9363C8.92578 15.5844 9.21137 15.2988 9.56325 15.2988H15.9379C16.2898 15.2988 16.5754 15.5844 16.5754 15.9363C16.5754 16.2882 16.2898 16.5738 15.9379 16.5738Z" fill="black"/>
<path d="M19.7628 30.5981H5.73857C4.6842 30.5981 3.82617 29.7401 3.82617 28.6857V10.8367C3.82617 9.78234 4.6842 8.92432 5.73857 8.92432H19.7628C20.8172 8.92432 21.6752 9.78234 21.6752 10.8367V28.6857C21.6752 29.7401 20.8172 30.5981 19.7628 30.5981ZM5.73857 10.1992C5.38796 10.1992 5.1011 10.4861 5.1011 10.8367V28.6857C5.1011 29.0363 5.38796 29.3232 5.73857 29.3232H19.7628C20.1134 29.3232 20.4003 29.0363 20.4003 28.6857V10.8367C20.4003 10.4861 20.1134 10.1992 19.7628 10.1992H5.73857Z" fill="black"/>
</svg>
