<svg width="33" height="36" viewBox="0 0 33 36" fill="none" xmlns="http://www.w3.org/2000/svg">
<path d="M18.0019 23.7188L9.14648 27.1247L16.6396 33.9366L25.8356 30.19L18.0019 23.7188Z" fill="#422FBD"/>
<mask id="mask0_1588_1165" style="mask-type:luminance" maskUnits="userSpaceOnUse" x="6" y="22" width="23" height="14">
<path d="M7.80329 25.4325L15.7669 22.7178L26.1726 31.8188C26.8039 32.3713 27.764 32.3075 28.3166 31.6755C28.4997 31.4659 28.6148 31.2207 28.6645 30.9663H28.6662C28.575 31.4998 28.2023 31.9671 27.6538 32.1526L17.2315 35.7057L17.2307 35.7041C16.7345 35.8714 16.1653 35.7778 15.7428 35.4083L7.35511 28.0727C7.12896 27.8962 6.94919 27.6543 6.85061 27.3619C6.58054 26.5658 7.00718 25.7017 7.80329 25.4325ZM18.4046 25.0332L11.2744 27.4638L17.0807 32.542L24.1861 30.1197L18.4046 25.0332Z" fill="white"/>
</mask>
<g mask="url(#mask0_1588_1165)">
<path d="M28.6677 22.7168H6.58203V35.8721H28.6677V22.7168Z" fill="white"/>
</g>
<path d="M23.1155 2.25977L13.2383 5.66571L21.4125 13.1588L30.6086 8.73106L23.1155 2.25977Z" fill="#422FBD"/>
<mask id="mask1_1588_1165" style="mask-type:luminance" maskUnits="userSpaceOnUse" x="12" y="0" width="21" height="14">
<path d="M31.7708 10.7044L23.8768 13.3959L13.6781 4.4747C13.2556 4.10522 12.6865 4.01161 12.1903 4.17895L12.1895 4.1773L22.5778 0.634982L22.5786 0.636638C23.0749 0.469298 23.644 0.562909 24.0665 0.932384L32.2198 8.06341C32.4459 8.23986 32.6257 8.48176 32.7243 8.77419C32.9935 9.5703 32.5669 10.4343 31.7708 10.7044ZM21.2325 11.0813L28.2997 8.67229L22.7278 3.79871L15.6605 6.20775L21.2325 11.0813Z" fill="white"/>
</mask>
<g mask="url(#mask1_1588_1165)">
<path d="M32.9935 0.469727H12.1895V13.3955H32.9935V0.469727Z" fill="white"/>
</g>
<path d="M11.8723 6.34668L3.35742 9.41203L24.4743 29.1665L27.5396 28.4853L29.2426 19.6299L20.7277 12.4774L11.8723 6.34668Z" fill="#422FBD"/>
<mask id="mask2_1588_1165" style="mask-type:luminance" maskUnits="userSpaceOnUse" x="0" y="4" width="31" height="29">
<path d="M30.7557 20.4165L28.6714 30.9655L28.6681 30.9647C28.6184 31.219 28.5033 31.4651 28.3202 31.6738C27.7676 32.3051 26.8075 32.3689 26.1762 31.8171L1.55978 10.2866C1.33362 10.1101 1.15386 9.86821 1.05528 9.57577C0.78604 8.77966 1.21268 7.91562 2.00879 7.64639L12.1867 4.17697L12.1876 4.17863C12.6838 4.01129 13.2529 4.1049 13.6754 4.47438L30.1791 18.9096C30.6281 19.2492 30.8709 19.8258 30.7557 20.4165ZM26.1928 27.7943L27.597 20.6873L12.3367 7.33987L5.47986 9.67767L26.1928 27.7943Z" fill="white"/>
</mask>
<g mask="url(#mask2_1588_1165)">
<path d="M30.87 4.01074H0.785156V32.37H30.87V4.01074Z" fill="white"/>
</g>
</svg>
