<svg width="32" height="32" viewBox="0 0 32 32" fill="none" xmlns="http://www.w3.org/2000/svg">
<g clip-path="url(#clip0_1757_11152)">
<path d="M29.1906 13.5661H27.8624V10.7559C27.8624 10.4908 27.7501 10.2381 27.5535 10.0603C27.3568 9.88257 27.0938 9.79651 26.8303 9.8232C26.681 9.83832 23.3374 10.2164 21.6727 13.5661H18.4355V2.81089C18.4354 1.2607 17.1742 -0.000488281 15.6241 -0.000488281H2.81333C1.26314 -0.000488281 0.00195312 1.2607 0.00195312 2.81089V15.6216C0.00195312 17.1718 1.26314 18.4329 2.81327 18.4329H4.14152V21.2431C4.14152 21.5083 4.25377 21.7609 4.45045 21.9387C4.62358 22.0951 4.84783 22.1806 5.07895 22.1806C5.11039 22.1806 5.14208 22.1791 5.17364 22.1758C5.32289 22.1607 8.66652 21.7826 10.3312 18.4329H13.5685V29.1881C13.5685 30.7383 14.8296 31.9994 16.3798 31.9994H29.1905C30.7408 31.9995 32.002 30.7383 32.002 29.1882V16.3774C32.002 14.8273 30.7408 13.5661 29.1906 13.5661ZM9.72308 16.5579C9.33845 16.5579 8.99283 16.7929 8.85133 17.1505C8.16926 18.8742 6.91283 19.6671 6.01658 20.0257V17.4954C6.01658 16.9777 5.59683 16.5579 5.07908 16.5579H2.81333C2.29702 16.5579 1.87702 16.1379 1.87702 15.6216V2.81089C1.87695 2.29457 2.29702 1.87451 2.81333 1.87451H15.6241C16.1404 1.87451 16.5604 2.29457 16.5604 2.81082V15.6216C16.5604 16.1379 16.1403 16.5579 15.6241 16.5579H9.72308V16.5579ZM30.127 29.1882C30.127 29.7045 29.7069 30.1245 29.1906 30.1245H16.3798C15.8635 30.1245 15.4435 29.7044 15.4435 29.1882V18.4329H15.6241C17.1743 18.4329 18.4354 17.1718 18.4354 15.6216V15.4411H22.2808C22.6655 15.4411 23.0111 15.2061 23.1526 14.8485C23.8346 13.1248 25.0911 12.3319 25.9873 11.9733V14.5036C25.9873 15.0213 26.4071 15.4411 26.9248 15.4411H29.1906C29.7069 15.4411 30.1269 15.8611 30.1269 16.3774V29.1882H30.127Z" fill="#1C1C25"/>
<path d="M12.9856 12.0417C12.9736 12.0416 11.8168 12.0248 10.6659 11.4334C11.3244 10.5902 11.8434 9.44601 11.9933 7.89545H12.9817C13.4995 7.89545 13.9192 7.4757 13.9192 6.95795C13.9192 6.4402 13.4995 6.02045 12.9817 6.02045H10.156V5.45264C10.156 4.93489 9.7362 4.51514 9.21845 4.51514C8.7007 4.51514 8.28095 4.93489 8.28095 5.45264V6.02045H5.45514C4.93739 6.02045 4.51764 6.4402 4.51764 6.95795C4.51764 7.4757 4.93739 7.89545 5.45514 7.89545H6.44352C6.59352 9.44601 7.11245 10.5902 7.77095 11.4334C6.62008 12.0248 5.46333 12.0416 5.45508 12.0417C4.93733 12.0417 4.51758 12.4614 4.51758 12.9792C4.51758 13.4969 4.93733 13.9167 5.45508 13.9167C5.52227 13.9167 7.11908 13.9069 8.7187 13.0538C8.8827 12.9663 9.0502 12.8674 9.21833 12.7575C9.38652 12.8674 9.55395 12.9663 9.71795 13.0538C11.3176 13.9069 12.9144 13.9167 12.9816 13.9167C13.4993 13.9167 13.921 13.4969 13.921 12.9792C13.921 12.4614 13.5033 12.0417 12.9856 12.0417ZM9.21845 10.2344C8.74339 9.6052 8.44614 8.82426 8.33008 7.89545H10.1068C9.99077 8.82426 9.69345 9.6052 9.21845 10.2344Z" fill="#1C1C25"/>
<path d="M23.6235 18.5998C23.4647 18.2822 23.1401 18.0815 22.785 18.0815C22.4299 18.0815 22.1053 18.2822 21.9464 18.5998L18.1832 26.1264C17.9516 26.5895 18.1394 27.1525 18.6024 27.3842C18.737 27.4515 18.88 27.4834 19.0209 27.4834C19.3648 27.4834 19.6959 27.2934 19.8602 26.9649L20.5419 25.6015H25.028L25.7097 26.9649C25.9412 27.428 26.5043 27.6159 26.9675 27.3842C27.4306 27.1526 27.6183 26.5895 27.3867 26.1264L23.6235 18.5998ZM21.4794 23.7265L22.785 21.1154L24.0905 23.7265H21.4794Z" fill="#1C1C25"/>
<path d="M22.8554 5.36321C23.0385 5.54627 23.2784 5.63783 23.5183 5.63783C23.7582 5.63783 23.9982 5.54633 24.1812 5.36321C24.5473 4.99708 24.5473 4.40352 24.1812 4.03739L23.9121 3.76827C27.3626 3.97271 30.1074 6.84421 30.1074 10.3452C30.1074 10.863 30.5271 11.2827 31.0449 11.2827C31.5626 11.2827 31.9824 10.863 31.9824 10.3452C31.9824 5.80314 28.3859 2.08577 23.8913 1.88983L24.1812 1.59989C24.5473 1.23377 24.5473 0.640207 24.1812 0.274082C23.8151 -0.0919804 23.2215 -0.0920429 22.8554 0.274082L20.9738 2.15577C20.6077 2.52189 20.6077 3.11546 20.9738 3.48158L22.8554 5.36321Z" fill="#1C1C25"/>
<path d="M9.12895 26.6173C8.76289 26.2511 8.16926 26.2511 7.80314 26.6173C7.43701 26.9834 7.43701 27.5769 7.80314 27.9431L8.07226 28.2122C4.6217 28.0078 1.87695 25.1363 1.87695 21.6353C1.87695 21.1175 1.4572 20.6978 0.939453 20.6978C0.421703 20.6978 0.00195312 21.1175 0.00195312 21.6353C0.00195312 26.1773 3.59839 29.8947 8.09308 30.0906L7.80314 30.3806C7.43701 30.7467 7.43701 31.3403 7.80314 31.7064C7.9862 31.8894 8.22614 31.9809 8.46601 31.9809C8.70589 31.9809 8.94589 31.8894 9.12889 31.7063L11.0105 29.8247C11.3766 29.4586 11.3766 28.865 11.0105 28.4989L9.12895 26.6173Z" fill="#1C1C25"/>
</g>
<defs>
<clipPath id="clip0_1757_11152">
<rect width="32" height="32" fill="white" transform="translate(0.00195312 -0.000488281)"/>
</clipPath>
</defs>
</svg>
