<svg width="32" height="46" viewBox="0 0 32 46" fill="none" xmlns="http://www.w3.org/2000/svg">
<path d="M16.5607 0C8.04752 0 1.12163 6.92598 1.12163 15.4392C1.12163 17.3486 1.46386 19.2013 2.13857 20.9593C1.68142 21.0921 1.25893 21.339 0.904784 21.6865C0.329796 22.2506 0 23.0335 0 23.8342V31.3999C0 33.0418 0.416444 34.6656 1.20419 36.0958C1.32558 36.3163 1.55353 36.4409 1.7886 36.4409C1.89737 36.4409 2.00766 36.4142 2.1095 36.3581C2.43201 36.1804 2.54932 35.7751 2.37176 35.4527C1.69226 34.219 1.33305 32.8175 1.33305 31.3999V23.8342C1.33305 23.389 1.51719 22.953 1.83836 22.6379C2.1479 22.3342 2.54932 22.1721 2.96843 22.1793C3.83571 22.1957 4.54125 22.9152 4.54125 23.783V25.2102C4.54125 25.5783 4.83959 25.8768 5.20778 25.8768C5.57596 25.8768 5.8743 25.5783 5.8743 25.2102V23.783V22.4994C5.8743 21.6148 6.59388 20.8953 7.4784 20.8953C8.36292 20.8953 9.0825 21.6148 9.0825 22.4994V25.2102C9.0825 25.5783 9.38084 25.8768 9.74903 25.8768C10.1172 25.8768 10.4155 25.5783 10.4155 25.2102V22.4994V21.2157C10.4155 20.3312 11.1351 19.6116 12.0197 19.6116C12.9042 19.6116 13.6238 20.3312 13.6238 21.2157V25.2204C13.6238 25.5885 13.9221 25.8869 14.2903 25.8869C14.6585 25.8869 14.9568 25.5885 14.9568 25.2204V21.2157V15.4392C14.9568 14.5547 15.6764 13.8351 16.5609 13.8351C17.4454 13.8351 18.165 14.5547 18.165 15.4392V24.9284V28.8419C18.165 29.21 18.4633 29.5084 18.8315 29.5084C19.1997 29.5084 19.4981 29.21 19.4981 28.8419V25.1449C20.0843 24.3766 21.1455 24.1402 22.0041 24.6006C22.0379 24.6187 22.0707 24.6378 22.1029 24.6576C22.1065 24.6601 22.1102 24.6622 22.1138 24.6646C22.9922 25.2103 23.3081 26.3556 22.8126 27.2793L19.0757 34.2469C18.5623 35.2042 17.7663 35.9553 16.8332 36.3635C16.6508 36.4375 16.5046 36.591 16.445 36.7906C16.3035 37.2645 16.2696 37.7732 16.3468 38.2616L16.9138 41.854C17.0051 42.4324 16.8392 43.0195 16.4588 43.4647C16.0784 43.91 15.5243 44.1653 14.9388 44.1653H4.55591C3.97071 44.1653 3.41687 43.9102 3.03642 43.4655C2.65605 43.0209 2.48987 42.4343 2.58034 41.8562L3.08743 38.6201C3.14448 38.2564 2.89583 37.9154 2.53217 37.8584C2.1678 37.8013 1.82743 38.0501 1.77055 38.4137L1.26346 41.6498C1.11247 42.6134 1.38948 43.5911 2.02357 44.3322C2.65757 45.0733 3.58066 45.4984 4.55591 45.4984H14.9385C15.9145 45.4984 16.8379 45.0728 17.4721 44.3308C18.1062 43.5887 18.3826 42.6103 18.2303 41.6462L17.6633 38.0537C17.6317 37.8532 17.6313 37.6471 17.6613 37.4459C18.739 36.8974 19.6503 35.996 20.2504 34.8769L23.1984 29.3802C25.7703 28.1538 27.9511 26.2452 29.5101 23.8496C31.1389 21.3465 32 18.4383 32 15.4391C31.9999 6.92598 25.0739 0 16.5607 0ZM16.5607 12.502C14.9412 12.502 13.6236 13.8196 13.6236 15.4392V18.7563C13.1622 18.4545 12.6109 18.2787 12.0195 18.2787C11.943 18.2787 11.8672 18.2818 11.7922 18.2876C11.2777 17.4285 11.0064 16.451 11.0064 15.4392C11.0064 12.3766 13.498 9.88482 16.5607 9.88482C19.6234 9.88482 22.1151 12.3766 22.1151 15.4392C22.1151 17.3847 21.1117 19.1521 19.4979 20.1549V15.4392C19.4979 13.8196 18.1803 12.502 16.5607 12.502ZM28.3928 23.1225C27.3089 24.788 25.8968 26.1964 24.2487 27.2687C24.5681 26.1708 24.2911 24.9877 23.5457 24.1461C26.1761 22.0341 27.7241 18.8397 27.7241 15.4392C27.7241 12.9423 26.9181 10.5812 25.3931 8.61122C25.1678 8.32009 24.7492 8.26685 24.4581 8.49214C24.1671 8.71742 24.1138 9.13609 24.3391 9.42714C25.6815 11.1614 26.3912 13.2403 26.3912 15.4391C26.3912 18.5534 24.9168 21.4716 22.4287 23.3255C21.4685 22.8923 20.3853 22.952 19.4981 23.4293V21.6697C21.9079 20.5346 23.4483 18.1235 23.4483 15.4391C23.4483 11.6413 20.3586 8.55168 16.5609 8.55168C12.7632 8.55168 9.67349 11.6413 9.67349 15.4391C9.67349 16.5902 9.9568 17.7062 10.4969 18.7059C9.9417 19.0439 9.5065 19.5603 9.27277 20.1754C8.81545 19.8214 8.25103 19.5998 7.63739 19.5669C7.03618 18.2723 6.73065 16.8858 6.73065 15.4391C6.73065 10.0187 11.1405 5.60884 16.5608 5.60884C18.7597 5.60884 20.8387 6.31847 22.5728 7.66094C22.8636 7.88613 23.2824 7.83299 23.5078 7.54194C23.7331 7.25089 23.6798 6.83223 23.3887 6.60685C21.4189 5.08185 19.0578 4.27588 16.5607 4.27588C10.4052 4.27588 5.39751 9.2837 5.39751 15.4392C5.39751 16.9426 5.70509 18.4401 6.29012 19.8156C5.57481 20.1336 5.00817 20.7274 4.73001 21.4631C4.38955 21.1987 3.99017 21.0073 3.55604 20.9128C2.82517 19.1803 2.45467 17.3408 2.45467 15.4392C2.45467 7.66103 8.78265 1.33305 16.5607 1.33305C24.3388 1.33305 30.6669 7.66103 30.6669 15.4392C30.6669 18.1795 29.8805 20.8364 28.3928 23.1225Z" fill="black"/>
</svg>
