<svg width="40" height="40" viewBox="0 0 40 40" fill="none" xmlns="http://www.w3.org/2000/svg">
<path d="M11.993 17.4216C12.1255 17.4214 12.2553 17.3844 12.368 17.3147C12.4806 17.245 12.5716 17.1453 12.6309 17.0268C12.6902 16.9084 12.7153 16.7758 12.7036 16.6438C12.6918 16.5119 12.6436 16.3858 12.5643 16.2797C11.2263 14.491 10.5778 12.2801 10.7375 10.0521C10.8972 7.82414 11.8546 5.72834 13.434 4.14888C15.0135 2.56941 17.1093 1.61207 19.3373 1.45234C21.5653 1.29261 23.7762 1.94118 25.5648 3.27918C25.6399 3.33564 25.7254 3.37672 25.8164 3.40009C25.9074 3.42345 26.0021 3.42863 26.0951 3.41532C26.1881 3.40202 26.2776 3.37049 26.3584 3.32256C26.4392 3.27462 26.5097 3.21121 26.566 3.13597C26.6222 3.06072 26.6631 2.97511 26.6862 2.88405C26.7093 2.79299 26.7142 2.69826 26.7007 2.6053C26.6871 2.51233 26.6553 2.42296 26.6072 2.34229C26.559 2.26162 26.4954 2.19125 26.42 2.13521C24.3563 0.591457 21.8054 -0.156847 19.2348 0.0274483C16.6642 0.211743 14.2462 1.31629 12.4238 3.13864C10.6014 4.961 9.4969 7.37907 9.3126 9.94967C9.12831 12.5203 9.87661 15.0712 11.4204 17.1349C11.4869 17.224 11.5733 17.2963 11.6727 17.3461C11.7721 17.3959 11.8818 17.4217 11.993 17.4216Z" fill="#1C1C25"/>
<path d="M30.714 10.7145C30.7197 8.39906 29.97 6.1449 28.5788 4.29399C28.5227 4.21859 28.4524 4.15498 28.3717 4.10682C28.291 4.05866 28.2017 4.0269 28.1087 4.01334C28.0157 3.99978 27.921 4.00469 27.8299 4.02781C27.7389 4.05092 27.6533 4.09177 27.578 4.14802C27.5028 4.20427 27.4394 4.27482 27.3914 4.35562C27.3435 4.43642 27.312 4.52588 27.2987 4.61888C27.2854 4.71189 27.2906 4.8066 27.3139 4.8976C27.3373 4.98859 27.3784 5.07409 27.4348 5.14918C28.7728 6.93781 29.4214 9.14873 29.2616 11.3767C29.1019 13.6047 28.1445 15.7005 26.5651 17.2799C24.9856 18.8594 22.8898 19.8167 20.6619 19.9765C18.4339 20.1362 16.223 19.4876 14.4343 18.1497C14.3592 18.0932 14.2737 18.0521 14.1828 18.0288C14.0918 18.0054 13.997 18.0002 13.904 18.0135C13.811 18.0268 13.7216 18.0583 13.6408 18.1063C13.56 18.1542 13.4894 18.2176 13.4332 18.2929C13.3769 18.3681 13.3361 18.4537 13.313 18.5448C13.2898 18.6359 13.2849 18.7306 13.2985 18.8235C13.3121 18.9165 13.3438 19.0059 13.392 19.0866C13.4401 19.1672 13.5037 19.2376 13.5791 19.2936C15.1717 20.4849 17.0643 21.2096 19.0452 21.3864C21.0262 21.5632 23.0172 21.1853 24.7956 20.2949C26.5739 19.4045 28.0694 18.0368 29.1147 16.3448C30.1599 14.6528 30.7137 12.7033 30.714 10.7145Z" fill="#1C1C25"/>
<path d="M15.15 8.45885V10.6108L13.4512 8.06265C13.3661 7.93511 13.2423 7.83831 13.098 7.78656C12.9537 7.73481 12.7966 7.73086 12.6499 7.77528C12.5032 7.8197 12.3746 7.91014 12.2833 8.03324C12.1919 8.15634 12.1426 8.30556 12.1426 8.45885V12.9698C12.1462 13.1569 12.2231 13.335 12.3566 13.466C12.4902 13.597 12.6698 13.6703 12.8568 13.6704C13.0439 13.6704 13.2235 13.597 13.3571 13.466C13.4906 13.335 13.5675 13.1569 13.5711 12.9699V10.818L15.27 13.3661C15.3551 13.4936 15.4789 13.5904 15.6232 13.6422C15.7675 13.6939 15.9246 13.6979 16.0713 13.6535C16.218 13.6091 16.3465 13.5186 16.4379 13.3955C16.5292 13.2724 16.5786 13.1232 16.5786 12.9699V8.4589C16.5748 8.27196 16.4979 8.09396 16.3644 7.96309C16.2308 7.83223 16.0513 7.75892 15.8643 7.75892C15.6774 7.75891 15.4978 7.8322 15.3643 7.96306C15.2308 8.09392 15.1538 8.27192 15.15 8.45885Z" fill="#1C1C25"/>
<path d="M24.1342 7.74463C23.9448 7.74463 23.7631 7.81988 23.6291 7.95384C23.4952 8.08779 23.4199 8.26947 23.4199 8.45891V12.9699C23.4199 13.1594 23.4952 13.3411 23.6291 13.475C23.7631 13.609 23.9448 13.6842 24.1342 13.6842C24.3236 13.6842 24.5053 13.609 24.6393 13.475C24.7732 13.3411 24.8485 13.1594 24.8485 12.9699V11.579H25.9388C26.4472 11.579 26.9349 11.377 27.2944 11.0175C27.654 10.6579 27.856 10.1703 27.856 9.66183C27.856 9.15336 27.654 8.66571 27.2944 8.30616C26.9349 7.94662 26.4472 7.74463 25.9388 7.74463H24.1342ZM26.4274 9.66183C26.4273 9.79139 26.3758 9.91563 26.2842 10.0072C26.1926 10.0989 26.0683 10.1504 25.9388 10.1505H24.8485V9.1732H25.9388C26.0683 9.17329 26.1926 9.2248 26.2842 9.31641C26.3758 9.40803 26.4273 9.53226 26.4274 9.66183Z" fill="#1C1C25"/>
<path d="M18.4955 7.74463C18.3061 7.74464 18.1244 7.8199 17.9905 7.95385C17.8565 8.0878 17.7813 8.26948 17.7812 8.45891V12.9699C17.7813 13.1594 17.8565 13.341 17.9905 13.475C18.1244 13.609 18.3061 13.6842 18.4955 13.6842H21.5034C21.6928 13.6842 21.8745 13.609 22.0084 13.475C22.1424 13.3411 22.2176 13.1594 22.2176 12.9699C22.2176 12.7805 22.1424 12.5988 22.0084 12.4649C21.8745 12.3309 21.6928 12.2557 21.5034 12.2557H19.2098V8.45891C19.2098 8.26947 19.1346 8.08779 19.0006 7.95384C18.8667 7.81988 18.685 7.74463 18.4955 7.74463Z" fill="#1C1C25"/>
<path d="M16.4286 23.5713H2.14286C1.57473 23.5719 1.03004 23.7979 0.628313 24.1996C0.226584 24.6013 0.00062014 25.146 0 25.7141V35.7141C0.00062014 36.2823 0.226584 36.827 0.628313 37.2287C1.03004 37.6304 1.57473 37.8564 2.14286 37.857H4.28571V39.2856C4.28567 39.4222 4.32483 39.556 4.39854 39.671C4.47225 39.7861 4.57741 39.8775 4.70156 39.9346C4.8257 39.9917 4.96361 40.0119 5.09892 39.9929C5.23423 39.974 5.36125 39.9166 5.46491 39.8276L7.76437 37.857H16.4286C16.9967 37.8564 17.5414 37.6304 17.9431 37.2287C18.3448 36.827 18.5708 36.2823 18.5714 35.7141V25.7141C18.5708 25.146 18.3448 24.6013 17.9431 24.1996C17.5414 23.7979 16.9967 23.5719 16.4286 23.5713ZM17.1429 35.7141C17.1427 35.9035 17.0674 36.0851 16.9334 36.219C16.7995 36.3529 16.618 36.4282 16.4286 36.4284L7.49996 36.4284C7.11786 36.3553 6.17441 37.3954 5.71429 37.7328V37.1427C5.71431 37.0489 5.69585 36.956 5.65996 36.8693C5.62408 36.7827 5.57146 36.7039 5.50513 36.6376C5.4388 36.5713 5.36005 36.5186 5.27337 36.4828C5.1867 36.4469 5.09381 36.4284 5 36.4284H2.14286C1.95347 36.4282 1.7719 36.3529 1.63799 36.219C1.50408 36.0851 1.42876 35.9035 1.42857 35.7141V25.7141C1.42876 25.5248 1.50408 25.3432 1.63799 25.2093C1.7719 25.0754 1.95347 25 2.14286 24.9999H16.4286C16.618 25 16.7995 25.0754 16.9334 25.2093C17.0674 25.3432 17.1427 25.5248 17.1429 25.7141V35.7141Z" fill="#1C1C25"/>
<path d="M3.57171 28.5716H10.0003C10.1897 28.5716 10.3714 28.4964 10.5054 28.3624C10.6393 28.2285 10.7146 28.0468 10.7146 27.8574C10.7146 27.6679 10.6393 27.4862 10.5054 27.3523C10.3714 27.2183 10.1897 27.1431 10.0003 27.1431H3.57171C3.38227 27.1431 3.20059 27.2183 3.06663 27.3523C2.93268 27.4862 2.85742 27.6679 2.85742 27.8574C2.85742 28.0468 2.93268 28.2285 3.06663 28.3624C3.20059 28.4964 3.38227 28.5716 3.57171 28.5716Z" fill="#1C1C25"/>
<path d="M15.0003 30H3.57171C3.38227 30 3.20059 30.0753 3.06663 30.2092C2.93268 30.3432 2.85742 30.5248 2.85742 30.7143C2.85742 30.9037 2.93268 31.0854 3.06663 31.2194C3.20059 31.3533 3.38227 31.4286 3.57171 31.4286H15.0003C15.1897 31.4286 15.3714 31.3533 15.5054 31.2194C15.6393 31.0854 15.7146 30.9037 15.7146 30.7143C15.7146 30.5248 15.6393 30.3432 15.5054 30.2092C15.3714 30.0753 15.1897 30 15.0003 30Z" fill="#1C1C25"/>
<path d="M15.0003 32.8569H3.57171C3.38227 32.8569 3.20059 32.9322 3.06663 33.0661C2.93268 33.2001 2.85742 33.3818 2.85742 33.5712C2.85742 33.7607 2.93268 33.9423 3.06663 34.0763C3.20059 34.2102 3.38227 34.2855 3.57171 34.2855H15.0003C15.1897 34.2855 15.3714 34.2102 15.5054 34.0763C15.6393 33.9423 15.7146 33.7607 15.7146 33.5712C15.7146 33.3818 15.6393 33.2001 15.5054 33.0661C15.3714 32.9322 15.1897 32.8569 15.0003 32.8569Z" fill="#1C1C25"/>
<path d="M37.8563 23.5713H23.5706C23.0025 23.5719 22.4578 23.7979 22.056 24.1996C21.6543 24.6013 21.4284 25.146 21.4277 25.7141V35.7141C21.4284 36.2823 21.6543 36.827 22.056 37.2287C22.4578 37.6304 23.0025 37.8564 23.5706 37.857H32.2348L34.5343 39.8276C34.6379 39.9166 34.7649 39.974 34.9002 39.9929C35.0356 40.0119 35.1735 39.9917 35.2976 39.9346C35.4218 39.8775 35.5269 39.7861 35.6006 39.671C35.6743 39.556 35.7135 39.4222 35.7135 39.2856V37.857H37.8563C38.4244 37.8564 38.9691 37.6304 39.3709 37.2287C39.7726 36.827 39.9985 36.2823 39.9992 35.7141V25.7141C39.9985 25.146 39.7726 24.6013 39.3709 24.1996C38.9691 23.7979 38.4244 23.5719 37.8563 23.5713ZM38.5706 35.7141C38.5704 35.9035 38.4951 36.0851 38.3612 36.219C38.2273 36.3529 38.0457 36.4282 37.8563 36.4284H34.9992C34.9054 36.4284 34.8125 36.4469 34.7258 36.4828C34.6391 36.5186 34.5604 36.5713 34.494 36.6376C34.4277 36.7039 34.3751 36.7827 34.3392 36.8693C34.3033 36.956 34.2849 37.0489 34.2849 37.1427L34.2849 37.7328C33.8038 37.3782 32.8906 36.3621 32.4992 36.4284H23.5706C23.3812 36.4282 23.1996 36.3529 23.0657 36.219C22.9318 36.0851 22.8565 35.9035 22.8563 35.7141V25.7141C22.8565 25.5248 22.9318 25.3432 23.0657 25.2093C23.1996 25.0754 23.3812 25 23.5706 24.9999H37.8563C38.0457 25 38.2273 25.0754 38.3612 25.2093C38.4951 25.3432 38.5704 25.5248 38.5706 25.7141V35.7141Z" fill="#1C1C25"/>
<path d="M36.428 27.1431H29.9994C29.81 27.1431 29.6283 27.2183 29.4944 27.3523C29.3604 27.4862 29.2852 27.6679 29.2852 27.8574C29.2852 28.0468 29.3604 28.2285 29.4944 28.3624C29.6283 28.4964 29.81 28.5716 29.9994 28.5716H36.428C36.6175 28.5716 36.7991 28.4964 36.9331 28.3624C37.067 28.2285 37.1423 28.0468 37.1423 27.8574C37.1423 27.6679 37.067 27.4862 36.9331 27.3523C36.7991 27.2183 36.6175 27.1431 36.428 27.1431Z" fill="#1C1C25"/>
<path d="M36.428 30H24.9994C24.81 30 24.6283 30.0753 24.4944 30.2092C24.3604 30.3432 24.2852 30.5248 24.2852 30.7143C24.2852 30.9037 24.3604 31.0854 24.4944 31.2194C24.6283 31.3533 24.81 31.4286 24.9994 31.4286H36.428C36.6175 31.4286 36.7991 31.3533 36.9331 31.2194C37.067 31.0854 37.1423 30.9037 37.1423 30.7143C37.1423 30.5248 37.067 30.3432 36.9331 30.2092C36.7991 30.0753 36.6175 30 36.428 30Z" fill="#1C1C25"/>
<path d="M36.428 32.8569H24.9994C24.81 32.8569 24.6283 32.9322 24.4944 33.0661C24.3604 33.2001 24.2852 33.3818 24.2852 33.5712C24.2852 33.7607 24.3604 33.9423 24.4944 34.0763C24.6283 34.2102 24.81 34.2855 24.9994 34.2855H36.428C36.6175 34.2855 36.7991 34.2102 36.9331 34.0763C37.067 33.9423 37.1423 33.7607 37.1423 33.5712C37.1423 33.3818 37.067 33.2001 36.9331 33.0661C36.7991 32.9322 36.6175 32.8569 36.428 32.8569Z" fill="#1C1C25"/>
</svg>
