<svg width="32" height="32" viewBox="0 0 32 32" fill="none" xmlns="http://www.w3.org/2000/svg">
<g clip-path="url(#clip0_1766_7398)">
<path d="M16 22.398C19.8391 22.398 22.9624 19.2746 22.9624 15.4355V6.96244C22.9624 3.12338 19.8391 0 16 0C12.1609 0 9.03756 3.12338 9.03756 6.96244V15.4354C9.03756 19.2747 12.1609 22.398 16 22.398ZM11.0376 6.96244C11.0376 4.22613 13.2637 2 16 2C18.7363 2 20.9624 4.22613 20.9624 6.96244V15.4354C20.9624 18.1717 18.7363 20.3979 16 20.3979C13.2637 20.3979 11.0376 18.1717 11.0376 15.4354V6.96244ZM27.4743 17.4484C27.006 20.1093 25.6032 22.5472 23.5243 24.3132C21.6763 25.8831 19.3903 26.8334 17 27.0417V30H23.5C24.0523 30 24.5 30.4477 24.5 31C24.5 31.5523 24.0523 32 23.5 32H8.5C7.94769 32 7.5 31.5523 7.5 31C7.5 30.4477 7.94769 30 8.5 30H15V27.0417C12.6097 26.8334 10.3238 25.8831 8.47569 24.3132C6.39681 22.5472 4.99406 20.1093 4.52575 17.4484C4.43006 16.9045 4.79331 16.3859 5.33725 16.2903C5.88113 16.1946 6.39975 16.5579 6.49544 17.1017C7.30963 21.7279 11.3069 25.0854 16 25.0854C20.6931 25.0854 24.6904 21.7278 25.5046 17.1017C25.6003 16.5578 26.1187 16.1944 26.6628 16.2903C27.2068 16.3859 27.57 16.9045 27.4743 17.4484ZM27.4894 6.7355V12.5127C27.4894 13.065 27.0417 13.5127 26.4894 13.5127C25.9371 13.5127 25.4894 13.065 25.4894 12.5127V6.7355C25.4894 6.18319 25.9371 5.7355 26.4894 5.7355C27.0417 5.7355 27.4894 6.18319 27.4894 6.7355ZM32 8.11137V11.1366C32 11.6889 31.5523 12.1366 31 12.1366C30.4477 12.1366 30 11.6889 30 11.1366V8.11137C30 7.55906 30.4477 7.11137 31 7.11137C31.5523 7.11137 32 7.55906 32 8.11137ZM4.51062 12.5126V6.73544C4.51062 6.18313 4.95831 5.73544 5.51062 5.73544C6.06294 5.73544 6.51062 6.18313 6.51062 6.73544V12.5126C6.51062 13.0649 6.06294 13.5126 5.51062 13.5126C4.95831 13.5126 4.51062 13.0649 4.51062 12.5126ZM2 8.11137V11.1366C2 11.6889 1.55231 12.1366 1 12.1366C0.447688 12.1366 0 11.6889 0 11.1366V8.11137C0 7.55906 0.447688 7.11137 1 7.11137C1.55231 7.11137 2 7.55906 2 8.11137Z" fill="#1C1C25"/>
</g>
<defs>
<clipPath id="clip0_1766_7398">
<rect width="32" height="32" fill="white"/>
</clipPath>
</defs>
</svg>
