<svg width="32" height="40" viewBox="0 0 32 40" fill="none" xmlns="http://www.w3.org/2000/svg">
<path fill-rule="evenodd" clip-rule="evenodd" d="M29.9868 29.9881C29.9868 30.4166 29.6497 30.7634 29.2226 30.7634H1.97817C1.55109 30.7634 1.21391 30.4165 1.21391 29.9881V15.4182C1.21391 14.9896 1.55109 14.6427 1.97817 14.6427H3.68661C3.95635 15.5717 4.81052 16.2505 5.82204 16.2505C6.83356 16.2505 7.66534 15.5717 7.93508 14.6427H9.80077V25.8102C9.80077 26.6909 10.5201 27.41 11.4193 27.41H13.2626C14.1617 27.41 14.881 26.6909 14.881 25.8102V14.6427H16.3197V25.8102C16.3197 26.6909 17.039 27.41 17.9382 27.41H19.8039C20.6806 27.41 21.4 26.6909 21.4 25.8102V14.6427H22.8611V25.8102C22.8611 26.6909 23.5804 27.41 24.4571 27.41H26.3229C27.1995 27.41 27.9188 26.6909 27.9188 25.8102V14.6427H29.2227C29.6498 14.6427 29.9869 14.9895 29.9869 15.4182V29.9881H29.9868ZM5.82204 13.0341C5.26008 13.0341 4.81052 13.4873 4.81052 14.036C4.81052 14.5857 5.26008 15.0379 5.82204 15.0379C6.36151 15.0379 6.81108 14.5857 6.81108 14.036C6.81108 13.4873 6.36151 13.0341 5.82204 13.0341ZM11.0146 12.4362V25.8103C11.0146 26.0202 11.1944 26.1985 11.4192 26.1985H13.2625C13.4873 26.1985 13.6671 26.0202 13.6671 25.8103V12.4362C13.6671 12.2263 13.4873 12.048 13.2625 12.048H11.4192C11.1945 12.0479 11.0146 12.2262 11.0146 12.4362ZM17.5335 13.842V25.8102C17.5335 26.0201 17.7134 26.1984 17.9382 26.1984H19.8038C20.0061 26.1984 20.186 26.0201 20.186 25.8102V13.842C20.186 13.632 20.0061 13.4546 19.8038 13.4546H17.9382C17.7134 13.4547 17.5335 13.6321 17.5335 13.842ZM24.0749 7.58754V25.8103C24.0749 26.0202 24.2547 26.1985 24.457 26.1985H26.3228C26.5476 26.1985 26.7049 26.0202 26.7049 25.8103V7.58754C26.7049 7.37762 26.5476 7.20018 26.3228 7.20018H24.457C24.2547 7.20018 24.0749 7.37753 24.0749 7.58754ZM12.3409 6.06049C12.8804 6.06049 13.3299 6.50464 13.3299 7.05448C13.3299 7.61194 12.8804 8.05637 12.3409 8.05637C11.7789 8.05637 11.3294 7.61194 11.3294 7.05448C11.3294 6.50464 11.7789 6.06049 12.3409 6.06049ZM18.8598 7.46634C19.4217 7.46634 19.8713 7.91141 19.8713 8.46015C19.8713 9.01 19.4217 9.46222 18.8598 9.46222C18.3203 9.46222 17.8707 9.0099 17.8707 8.46015C17.8707 7.91141 18.3203 7.46634 18.8598 7.46634ZM25.4011 1.21153C25.9406 1.21153 26.3901 1.65687 26.3901 2.20552C26.3901 2.76326 25.9406 3.20833 25.4011 3.20833C24.8391 3.20833 24.3896 2.76326 24.3896 2.20552C24.3896 1.65687 24.8391 1.21153 25.4011 1.21153ZM29.2226 13.4302H27.9187V7.58754C27.9187 6.70685 27.1994 5.98746 26.3228 5.98746H24.457C23.5804 5.98746 22.861 6.70676 22.861 7.58754V13.4302H21.3325C21.1526 12.7435 20.5232 12.2422 19.8038 12.2422H17.9382C17.1964 12.2422 16.5669 12.7435 16.3871 13.4302H14.881V12.4362C14.881 11.5555 14.1617 10.8364 13.2626 10.8364H11.4193C10.5202 10.8364 9.80077 11.5555 9.80077 12.4362V13.4302H7.93508C7.89012 13.2441 7.80021 13.0589 7.7103 12.8973L11.3294 9.0266C12.4546 9.57323 13.7124 9.15982 14.2966 8.09665L16.6569 8.60603C16.7243 9.76168 17.6909 10.6748 18.8599 10.6748C20.6343 10.6748 21.5929 8.7542 20.8155 7.42588L24.2773 4.12168C25.8591 4.99062 27.6041 3.84396 27.6041 2.20562C27.6041 0.985921 26.6151 0 25.4012 0C23.7035 0 22.6721 1.77358 23.423 3.24007L19.9838 6.55299C18.8907 5.927 17.5073 6.31711 16.9042 7.42588L14.5439 6.90952C14.4764 5.76102 13.5099 4.84868 12.341 4.84868C10.6961 4.84868 9.50369 6.63666 10.4527 8.19417L6.83365 12.0727C5.56248 11.4198 4.07057 12.1079 3.68661 13.4302H1.97817C0.89922 13.4302 0 14.3197 0 15.4183V29.9882C0 31.0876 0.899128 31.9762 1.97817 31.9762H9.8682L5.84452 38.7882H5.08026C4.76556 38.7882 4.49582 39.0544 4.49582 39.3942C4.49582 39.725 4.76556 40 5.08026 40H7.28321C8.05665 40 8.13371 38.7882 7.23826 38.7882L11.2619 31.9762H14.9934V38.7882H14.4989C14.1842 38.7882 13.892 39.0544 13.892 39.3942C13.892 39.725 14.1842 40 14.4989 40H16.7019C17.039 40 17.3088 39.725 17.3088 39.3942C17.3088 39.0543 17.039 38.7882 16.7019 38.7882H16.2073V31.9762H19.9163L23.9625 38.7882C23.067 38.7882 23.1441 40 23.9175 40H26.1205C26.4577 40 26.7274 39.725 26.7274 39.3942C26.7274 39.0543 26.4577 38.7882 26.1205 38.7882H25.3562L21.3325 31.9762H29.2227C30.3241 31.9762 31.2008 31.0876 31.2008 29.9882V15.4182C31.2007 14.3197 30.324 13.4302 29.2226 13.4302ZM7.12577 25.8102V19.4179C7.12577 19.2001 6.96842 19.0306 6.74364 19.0306H4.87786C4.67556 19.0306 4.49573 19.2001 4.49573 19.4179V25.8102C4.49573 26.0201 4.67556 26.1984 4.87786 26.1984H6.74364C6.96842 26.1984 7.12577 26.0202 7.12577 25.8102ZM6.74364 17.8179H4.87786C4.00121 17.8179 3.28191 18.5372 3.28191 19.418V25.8103C3.28191 26.691 4.00121 27.4101 4.87786 27.4101H6.74364C7.62029 27.4101 8.33969 26.691 8.33969 25.8103V19.418C8.33969 18.5372 7.62029 17.8179 6.74364 17.8179Z" fill="#1C1C25"/>
</svg>
