<svg xmlns="http://www.w3.org/2000/svg" id="Layer_1" data-name="Layer 1" viewBox="0 0 400 400"><defs><style> .cls-1 { fill: #fff; stroke-width: 0px; } </style></defs><path class="cls-1" d="M131.67,110.55c-9.27-35.85-.61-65.53,31.15-85.35,25.73-16.04,53.05-15.19,77.91,2.27,28.93,20.32,36.52,48.96,27.6,82.91,1.23.06,2.53.16,3.82.16,17.25.01,34.49,0,51.74.01,6.16,0,8.1,1.92,8.1,8,.01,18.33,0,36.67,0,55,0,7.17-1.6,8.78-8.76,8.85-.96,0-1.93,0-3.06,0v119.77c1.81,0,3.63-.07,5.44.01,3.99.17,6.32,2.36,6.35,6.33.08,12.22.22,24.45-.07,36.67-.21,9.07-7.87,16.37-16.97,16.82-2.11.11-4.24.02-6.92.02,0,5.34,0,10.52,0,15.7-.01,6.39-1.87,8.27-8.21,8.27-14.62,0-29.24.01-43.86,0-5.91,0-7.89-1.97-7.92-7.81-.02-5.22,0-10.44,0-15.9h-96c0,5.4.02,10.72,0,16.05-.03,5.61-2.06,7.65-7.7,7.66-14.87.02-29.74.02-44.61,0-5.63,0-7.65-2.04-7.68-7.67-.02-5.23,0-10.46,0-16.28-2.2,0-4.26.05-6.32,0-9.83-.29-17.52-7.91-17.64-17.74-.14-11.22-.04-22.45-.04-33.67,0-6.65,1.76-8.41,8.4-8.45,1,0,1.99,0,3.29,0v-119.77c-1.33,0-2.77.01-4.21,0-5.38-.06-7.48-2.12-7.48-7.49-.02-17.96,0-35.92,0-53.88,0-1,0-2,0-2.99.06-5.39,2.1-7.48,7.48-7.49,17.37-.02,34.74,0,52.11,0,1.35,0,2.69,0,4.08,0ZM201,234.66c-.89.13-.72.15-.67.09.37-.5.73-1,1.05-1.53,9.2-15.12,22.5-24.33,40.14-26.25,9.27-1.01,18.71-.5,28.08-.58,6.7-.06,8.63,2.04,8.34,8.82-.99,23.4-18.32,44.6-41.46,49.35-8.45,1.73-17.37,1.21-26.08,1.68-1.43.08-2.86.01-4.19.01v35.67h101.48v-119.31H92.24v119.29h101.57v-35.68c-6.65,0-13.12.12-19.58-.02-28.14-.6-52.12-24.74-52.21-52.48-.02-5.09,2.12-7.32,7.23-7.34,7.87-.04,15.75-.11,23.62.03,11.72.2,22.59,3.52,31.56,11.05,5.91,4.96,10.81,11.13,16.57,17.2ZM199.78,146.46c33.3,0,60.14-26.68,60.2-59.85.06-33.04-26.86-59.85-60.15-59.89-32.69-.04-59.77,26.87-59.83,59.48-.06,33.24,26.75,60.27,59.78,60.26ZM80,314.33c0,9.14,0,18.09,0,27.03,0,7.07,1.69,8.72,8.88,8.72,74.09,0,148.17,0,222.26,0,1.12,0,2.26.09,3.37-.07,3.09-.43,5.3-2.25,5.36-5.32.2-10.06.08-20.12.08-30.36H80ZM319.83,122.79c-.64-.12-1-.24-1.35-.24-17.99-.01-35.99-.07-53.98.09-1.31.01-3.06,1.4-3.85,2.63-28.45,44.13-92.86,44.15-121.16-.08-1.34-2.09-2.71-2.74-5.1-2.73-16.87.1-33.74.05-50.61.06-1.2,0-2.4.11-3.47.16v47.55h239.52v-47.46ZM265.19,218.58c-17.04-.89-33.71-1.37-46.79,11.99-6.42,6.55-10.5,14.23-11.88,23.77,10.73-.47,20.99,1.09,30.99-2.31,14.73-5.01,26.94-19.57,27.68-33.44ZM134.64,218.39c.16,1.28.18,2.28.42,3.23,3.38,13.4,11.28,23.08,23.85,28.96,11.03,5.16,22.72,3.41,34.66,3.66-2.43-13.55-9.3-23.5-20.79-30.38-11.92-7.15-25.03-5.32-38.14-5.46ZM139.83,362.25h-35.6v11.52h35.6v-11.52ZM260.18,373.83h35.57v-11.49h-35.57v11.49Z"></path><path class="cls-1" d="M104,62.64c0,9.76.02,18.98,0,28.2-.01,5.64-2.05,7.72-7.63,7.73-10.87.03-21.74.02-32.62,0-5.67-.01-7.73-2.03-7.74-7.61-.03-9.32,0-18.64,0-28.32-3.95,0-7.54-.03-11.13.01-2.89.04-5.13-.96-6.34-3.71-1.22-2.8-.23-5.08,1.78-7.09,11.58-11.55,23.13-23.13,34.74-34.64,3.4-3.37,6.42-3.42,9.78-.1,11.62,11.51,23.17,23.09,34.75,34.64,2,2,3.1,4.25,1.92,7.07-1.22,2.94-3.61,3.89-6.64,3.83-3.48-.07-6.95-.02-10.88-.02ZM59.79,50.43c1.29.23,3.05.27,4.59.87,2.98,1.16,3.66,3.75,3.65,6.71-.05,9.43-.02,18.86-.02,28.33h24c0-.99,0-1.72,0-2.46,0-8.73-.04-17.45.02-26.18.03-4.72,2.06-6.74,6.8-7.05.63-.04,1.26-.2,1.2-.19-6.76-6.77-13.6-13.62-20.08-20.11-6.56,6.53-13.4,13.35-20.15,20.07Z"></path><path class="cls-1" d="M344,62.64c0,9.54,0,18.63,0,27.71,0,6.35-1.88,8.22-8.27,8.22-10.75,0-21.49.02-32.24,0-5.37-.02-7.46-2.11-7.48-7.49-.03-9.33,0-18.66,0-28.43-3.85,0-7.44-.05-11.02.01-3.05.05-5.4-1.01-6.55-3.95-1.12-2.84.07-5.05,2.07-7.04,11.5-11.45,22.96-22.94,34.48-34.37,3.53-3.5,6.52-3.51,10.06,0,11.52,11.43,22.98,22.92,34.48,34.38,1.99,1.99,3.17,4.21,2.04,7.05-1.17,2.94-3.52,3.99-6.57,3.93-3.49-.06-6.97-.01-10.99-.01ZM299.29,50.36c7.76.94,8.71,2.04,8.71,9.99,0,3.99,0,7.98,0,11.97v13.99h24c0-9.76-.04-19.23.02-28.7.03-4.53,2.07-6.62,6.52-6.94.69-.05,1.37-.08,1.44-.09-6.76-6.74-13.67-13.63-20.45-20.4-6.43,6.41-13.22,13.19-20.24,20.18Z"></path><path class="cls-1" d="M128.21,266.42h11.51v11.56h-11.51v-11.56Z"></path><path class="cls-1" d="M271.75,278.04h-11.56v-11.51h11.56v11.51Z"></path><path class="cls-1" d="M163.74,290.03h-11.55v-11.51h11.55v11.51Z"></path><path class="cls-1" d="M247.85,278.5v11.49h-11.67v-11.49h11.67Z"></path><path class="cls-1" d="M206.31,134.33h-11.77c-.17-.23-.45-.44-.43-.61.65-4.23-1.02-6.36-5.12-8.23-8.42-3.85-12.29-11.22-13.09-20.64h11.81c.27.99.54,2.17.91,3.31,1.87,5.73,7.73,9.29,13.48,8.21,5.88-1.11,10.13-6.41,9.88-12.33-.25-5.9-4.95-10.75-10.92-11.44-3.08-.36-6.3-.51-9.16-1.55-9.45-3.45-14.89-10.47-15.73-20.39-.85-10.11,3.41-18.2,12.48-22.81,4.08-2.07,6.6-3.93,5.15-8.93h12.29c-1.45,5.24,1.58,7.06,5.74,9.18,7.93,4.05,11.59,11.27,12.24,20.32h-11.8c-.28-1.08-.52-2.16-.85-3.2-1.82-5.82-7.51-9.42-13.32-8.43-5.92,1.01-10.24,6.22-10.08,12.16.15,5.94,4.72,10.85,10.73,11.59,2.72.33,5.52.39,8.13,1.12,9.33,2.62,16.11,11,17.03,20.67.9,9.47-4.01,19.07-12.71,23.12-4.04,1.88-6.49,3.77-4.88,8.88Z"></path></svg>