<svg xmlns="http://www.w3.org/2000/svg" id="Layer_1" data-name="Layer 1" viewBox="0 0 400 400"><defs><style> .cls-1 { fill: #fff; stroke-width: 0px; } </style></defs><path class="cls-1" d="M40.19,392c-7.64-3.01-10.17-8.68-10.14-16.75.2-54.76.11-109.53.11-164.29,0-1.62-.06-3.27.21-4.85.48-2.85,2.35-4.33,5.2-4.42,2.85-.08,4.83,1.3,5.46,4.1.35,1.56.33,3.22.33,4.83.02,54.76.01,109.53.01,164.29q0,5.85,6,5.85c102.17,0,204.34,0,306.51,0q5.47,0,5.48-5.62c0-83.21,0-166.41.01-249.62,0-1.74-.02-3.52.31-5.21.56-2.84,2.63-4.32,5.37-4.27,2.91.06,4.94,1.67,5.37,4.73.2,1.47.16,2.99.16,4.48,0,83.33-.05,166.66.1,250,.02,8.03-2.41,13.79-10.13,16.75H40.19Z"></path><path class="cls-1" d="M310.52,51.47c9.79,0,19.39,0,28.98,0,5.86,0,11.73-.06,17.59.02,7.8.11,13.3,5.29,13.44,13.07.2,10.47.11,20.95.04,31.43-.03,4.24-2.13,6.47-5.64,6.42-3.45-.05-5.48-2.32-5.52-6.59-.08-9.6-.12-19.21.02-28.81.05-3.18-.89-4.39-4.25-4.36-16.34.14-32.68,0-49.02.15-1.64.01-3.54.91-4.87,1.97-8.72,6.93-18.41,9.36-29.08,6.03-2.63-.82-5.31-2.94-6.92-5.21-1.59-2.25-3.01-3.19-5.64-2.92-1.97.21-3.97.04-6.35.04-.07,1.53-.18,2.86-.19,4.18-.02,8.98.04,17.96-.02,26.94-.1,16.34-8.14,27.63-23.51,33.19-9.01,3.26-18.11,6.25-26.11,11.85-1.42,1-4.74,1.01-6.16,0-7.89-5.53-16.84-8.56-25.75-11.76-15.88-5.71-23.81-16.85-23.89-33.66-.05-10.08,0-20.16,0-30.75-3.28,0-6.23-.06-9.16.05-.61.02-1.51.47-1.74.98-3.43,7.34-10.1,8.39-17,8.48-7.61.09-14.34-2.62-20.3-7.43-1.39-1.12-3.46-1.97-5.22-1.99-16.09-.15-32.18.02-48.27-.17-3.7-.04-4.65,1.23-4.64,4.74.1,37.17.06,74.34.05,111.51,0,1.61.03,3.27-.3,4.83-.64,3-2.78,4.45-5.73,4.26-2.77-.18-4.62-1.78-5.02-4.66-.17-1.23-.16-2.49-.16-3.73,0-37.42-.01-74.84,0-112.26,0-11.14,4.76-15.84,15.99-15.84,14.58,0,29.17,0,44,0-.37-2.05-.87-3.83-.98-5.63-.36-5.51,3.44-10.69,8.92-12.41,13.63-4.29,28.85,1.71,35.88,14.49,1.56,2.83,3.2,4,6.34,3.61,2.2-.27,4.47-.05,7.13-.05.08-1.5.2-2.81.21-4.11.02-6.99-.02-13.97.02-20.96.03-5.06,1.13-6.52,5.88-7.57,14.96-3.31,29.92-6.57,44.9-9.78,1.29-.28,2.75-.23,4.05.05,14.74,3.15,29.46,6.35,44.18,9.58,5.28,1.16,6.38,2.54,6.4,7.94.03,8.09,0,16.18,0,24.83,3.71,0,7.16.2,10.55-.13.94-.09,1.97-1.61,2.57-2.69,6.82-12.42,20.32-18.72,34.13-15.84,8.51,1.77,12.55,8.08,10.63,16.59-.13.59-.26,1.18-.46,2.1ZM159.21,29.12c-.16.81-.28,1.18-.28,1.54,0,21.7-.12,43.4.11,65.1.04,3.35,1.5,6.72,2.56,10.01.82,2.57,2.45,3.02,5.2,2.08,23.91-8.18,47.87-16.21,71.85-24.17,2.4-.8,3.31-1.82,3.29-4.42-.13-15.59-.13-31.18,0-46.77.02-2.69-.89-3.66-3.41-4.17-10.73-2.2-21.43-4.59-32.15-6.86-2.29-.49-4.77-1.47-6.92-1.04-13.41,2.7-26.76,5.75-40.25,8.71ZM241.4,94.54c-21.8,7.34-43.28,14.57-65.39,22.02,6.04,2.43,11.73,3.86,16.45,6.84,5.63,3.56,10,3.37,15.73.07,5.96-3.42,12.88-5.17,19.36-7.69,9.15-3.56,14.78-11.96,13.85-21.24ZM120.39,61.05c.35-.04,1.22-.09,2.08-.23,4.22-.7,4.56-1.36,2.88-5.38-3.58-8.54-13.1-13.53-21.94-11.82-3.09.6-3.19,1.97-2.31,4.4,2.76,7.62,10.57,13.1,19.29,13.04ZM280.92,61.46c8.11-.42,15.51-5.47,18.45-12.9,1.48-3.73,1.2-4.27-2.59-4.98-7.74-1.46-16.26,2.52-20.2,9.72-1.02,1.86-2.34,4.72-1.61,6.06.75,1.37,3.87,1.46,5.95,2.1Z"></path><path class="cls-1" d="M196.63,355.23c-39.17,0-78.34-.01-117.51.02-4.72,0-8.92-1.09-11.98-4.93-2.72-3.42-3.81-7.31-2.49-11.57,3.68-11.89,7.37-23.79,11.23-35.62,1.91-5.87,6.33-8.72,12.41-9.1.75-.05,1.5-.02,2.24-.02,78.47,0,156.93.02,235.4-.03,6.29,0,11.49,1.9,13.89,7.98,1.02,2.59,1.34,6.01.59,8.66-3.37,11.85-7.14,23.6-10.98,35.31-2.1,6.4-6.74,9.29-14.17,9.3-19.83.03-39.67,0-59.51.01-19.71,0-39.42,0-59.13,0ZM197.12,344c38.9,0,77.8-.05,116.71.08,3.52.01,5-1.12,5.97-4.46,2.92-10.04,6.22-19.96,9.34-29.94,1.19-3.82.76-4.45-3.19-4.45-78.55-.01-157.1,0-235.65-.06-2.58,0-3.75.91-4.49,3.34-3.04,10-6.25,19.95-9.4,29.92-1.65,5.23-1.42,5.55,4,5.55,38.9,0,77.8,0,116.71,0Z"></path><path class="cls-1" d="M197.01,281.78c-39.29,0-78.59,0-117.88,0-7.76,0-12.93-3.34-14.42-9.84-.56-2.42-.44-5.28.27-7.67,3.35-11.34,6.94-22.61,10.58-33.87,2.09-6.47,6.65-9.77,13.45-9.77,54.26-.03,108.52-.02,162.78,0,4.34,0,6.94,2.16,6.95,5.6,0,3.44-2.59,5.55-6.92,5.62-1,.02-2,0-2.99,0-51.89,0-103.78-.01-155.67.01-7,0-5.93-1-8.12,5.9-2.94,9.26-5.87,18.52-8.79,27.78-1.41,4.48-1.04,5.01,3.61,5.01,20.08.01,40.17,0,60.25,0,57.75,0,115.51-.04,173.26.08,3.75,0,5.5-1.04,6.56-4.72,2.77-9.69,5.99-19.26,9.02-28.88,1.5-4.77,1.21-5.19-3.69-5.19-14.84,0-29.69,0-44.53,0-1.12,0-2.26.09-3.36-.07-3.13-.46-5.02-2.34-5.05-5.5-.03-3.18,1.88-5.06,4.98-5.57,1.22-.2,2.49-.08,3.74-.09,15.09,0,30.19-.02,45.28,0,11.3.01,17.03,7.89,13.63,18.76-3.27,10.46-6.58,20.9-9.9,31.35-2.56,8.05-6.66,11.05-15.14,11.05-39.29.01-78.58,0-117.88,0Z"></path><path class="cls-1" d="M177.91,256.76c-23.95,0-47.9,0-71.84,0-1.49,0-3.02.07-4.48-.2-2.8-.5-4.38-2.33-4.49-5.16-.12-2.84,1.31-4.79,4.07-5.51,1.3-.34,2.71-.34,4.08-.34,48.52-.02,97.04-.02,145.56,0,1.48,0,3.03.01,4.43.42,2.76.81,3.99,2.9,3.75,5.72-.22,2.66-1.72,4.41-4.38,4.86-1.46.25-2.98.2-4.48.2-24.07.01-48.14,0-72.22,0Z"></path><path class="cls-1" d="M200.4,200.4c-17.57,0-35.14,0-52.71,0-1.12,0-2.26.08-3.36-.07-3.17-.44-5.01-2.41-5.04-5.51-.02-3.12,1.86-5.06,4.99-5.57.97-.16,1.99-.07,2.99-.07,35.39,0,70.78,0,106.17,0,.87,0,1.75-.05,2.62.03,3.19.31,5.48,2.65,5.49,5.56.01,2.93-2.25,5.29-5.44,5.58-1.11.1-2.24.05-3.36.05-17.45,0-34.89,0-52.34,0Z"></path><path class="cls-1" d="M281.14,158.98c-14.24-.15-26.68-9.68-30.28-23.4-1.86-7.1,1.85-13.69,8.87-15.75,16.37-4.8,34.21,5.33,38.51,21.87,1.95,7.5-1.87,14.13-9.4,16.02-2.52.63-5.13.85-7.7,1.26ZM261.91,131.29c.15,10.45,15.07,20.08,24.14,15.47.69-.35,1.22-2.06,1.02-2.96-2.34-10.28-15.4-16.72-25.16-12.51Z"></path><path class="cls-1" d="M118.84,158.74c-1.03-.08-2.53-.14-4-.34-10.59-1.47-15.18-9.09-11.57-19.15,5.44-15.13,21.83-23.72,37.35-19.55,7.26,1.95,11.17,8.62,9.28,15.83-3.62,13.87-16.29,23.48-31.06,23.2ZM132.7,129.48c-8.48.44-16.13,5.82-18.84,13.45-.9,2.54-.54,3.89,2.44,4.36,8.28,1.3,16.61-2.37,20.62-9.62,1.04-1.87,2.37-4.65,1.67-6.09-.65-1.34-3.83-1.45-5.9-2.11Z"></path><path class="cls-1" d="M112.62,113.74c-7.95-.04-15.43-3.22-21.57-9.46-5.02-5.11-4.96-12.57.04-17.75,12.03-12.48,32.46-12.52,44.52-.08,5.14,5.3,5.18,12.8-.04,18.04-6.08,6.1-13.47,9.21-22.95,9.25ZM98.53,95.56c7.1,8.44,20.31,9.28,28.09,2.01,1.38-1.29,1.97-2.28.37-3.95-7.44-7.77-22.02-6.91-28.46,1.94Z"></path><path class="cls-1" d="M287.47,113.74c-8.82-.04-16.19-3.18-22.28-9.25-5.24-5.23-5.2-12.75-.06-18.03,12.06-12.36,32.13-12.46,44.26-.22,5.35,5.4,5.41,12.94.05,18.3-6.1,6.1-13.5,9.16-21.97,9.2ZM302.21,95.59c-6.41-8.98-21.91-9.84-28.56-1.61-.52.64-.16,2.81.54,3.49,7.65,7.42,20.86,6.55,28.02-1.88Z"></path><path class="cls-1" d="M200.35,181c-9.85,0-19.7.02-29.56,0-4.73-.01-7.22-2.03-7.15-5.69.07-3.51,2.52-5.51,7-5.52,19.83-.02,39.66-.02,59.49,0,4.46,0,6.92,2.03,6.96,5.56.05,3.54-2.4,5.63-6.81,5.65-9.98.04-19.95.01-29.93.01Z"></path><path class="cls-1" d="M302.54,256.69c-3.05-.02-5.5-2.38-5.57-5.38-.08-3.11,2.53-5.76,5.66-5.73,3.15.03,5.66,2.66,5.54,5.82-.12,3.02-2.55,5.31-5.63,5.29Z"></path><path class="cls-1" d="M285.96,256.68c-3.29.08-5.71-2.28-5.7-5.54.01-3.06,2.35-5.46,5.39-5.54,3.11-.08,5.81,2.53,5.79,5.61-.02,2.99-2.44,5.4-5.48,5.48Z"></path><path class="cls-1" d="M208.81,80.81c-5.22-3.3-11.49-1.34-17.99-.17-5.22.94-9.62-3.42-9.5-9.12.1-5.15-1.32-9.23-4.37-13.35-3.91-5.27-1.46-12.16,4.9-14.1,4.64-1.41,8.03-3.71,10.82-7.75,4.04-5.85,11.26-5.87,15.36-.07,2.81,3.97,6.12,6.37,10.78,7.8,6.61,2.04,8.9,8.87,4.81,14.36-2.99,4.01-4.24,8.06-4.19,13.03.06,5.74-4.13,9.46-10.62,9.36ZM200.46,44.21c-3.06,5.67-7.04,8.76-13.4,9.55,4.72,4.32,5.93,9.32,5.38,15.53,5.59-3.12,10.62-2.64,16.25-.15-1.37-6.39.71-10.99,4.87-15.59-6.31-.48-10.17-3.54-13.1-9.35Z"></path><path class="cls-1" d="M178.3,330.2c-24.07,0-48.14,0-72.21,0-1.49,0-3.01.04-4.47-.21-2.82-.48-4.41-2.32-4.51-5.14-.11-3,1.44-4.98,4.41-5.6,1.2-.25,2.48-.25,3.72-.25,48.52-.01,97.03-.01,145.55,0,1.49,0,3.43-.31,4.36.48,1.63,1.37,3.31,3.33,3.73,5.31.53,2.5-1.26,4.51-3.9,5.11-1.44.33-2.97.3-4.46.3-24.07.02-48.14.01-72.21.01Z"></path><path class="cls-1" d="M308.17,324.54c.03,3.05-2.27,5.45-5.35,5.57-3.21.12-5.83-2.31-5.86-5.46-.03-2.99,2.35-5.47,5.38-5.59,3.2-.13,5.79,2.31,5.83,5.48Z"></path><path class="cls-1" d="M291.44,324.62c-.01,3.11-2.66,5.59-5.84,5.49-3.12-.1-5.34-2.41-5.33-5.53.01-3.1,2.28-5.42,5.37-5.51,3.16-.08,5.81,2.46,5.8,5.55Z"></path></svg>