<svg xmlns="http://www.w3.org/2000/svg" id="Layer_1" data-name="Layer 1" viewBox="0 0 400 400"><defs><style> .cls-1 { fill: #fff; stroke-width: 0px; } </style></defs><path class="cls-1" d="M8,133.75c3.2-9.03,8.98-14.79,19.09-14.95,4.74-.08,9.48-.02,14.22-.02,1.23,0,2.45,0,4.15,0,0-1.58,0-2.9,0-4.23,0-12.47-.04-24.95.01-37.42.06-13.95,9.5-23.46,23.46-23.64,7.58-.09,15.15-.02,23.18-.02,0-5.4,0-10.36,0-15.32.03-13.89,7.36-21.21,21.24-21.23,2.74,0,5.49-.06,8.23.02,3.74.11,6.18,2.4,6.14,5.62-.04,3.22-2.47,5.46-6.24,5.57-3.37.09-6.74-.03-10.1.04-4.88.11-7.89,2.71-7.94,7.57-.16,15.47-.15,30.94-.02,46.4.04,4.9,2.9,7.68,7.79,7.72,16.09.1,32.18.1,48.28-.01,4.67-.03,7.59-2.8,7.64-7.47.15-15.59.16-31.19-.01-46.78-.05-4.75-3.2-7.33-8.09-7.43-3.24-.07-6.49.04-9.73-.03-3.97-.09-6.53-2.43-6.45-5.75.08-3.2,2.53-5.36,6.33-5.44,3.24-.07,6.49-.05,9.73-.01,11.46.12,19.24,7.72,19.52,19.19.14,5.6.02,11.2.02,17.07h42.36c0-5.28-.01-10.37,0-15.46.04-13.33,7.54-20.79,20.92-20.81,15.09-.01,30.19-.03,45.28,0,12.35.03,19.98,7.67,20.11,20.1.06,5.33,0,10.66,0,16.44,7.28,0,14.11-.05,20.93.03,2.73.03,5.54,0,8.17.61,10.49,2.42,17.43,11.26,17.52,22.28.1,12.6.03,25.2.03,37.8,0,1.36,0,2.72,0,4.59,1.65,0,3.1.07,4.54,0,27.87-1.45,34.35,4.32,33.01,33.13-.48,10.33-.06,20.7-.08,31.06-.03,12.3-7.77,20.1-20.09,20.14-15.34.05-30.69.05-46.03,0-12.38-.04-20.01-7.74-20.04-20.13-.03-14.72-.04-29.44,0-44.16.03-12.33,7.73-19.96,20.14-20.02,5.6-.03,11.2,0,16.98,0,.13-.89.33-1.6.33-2.3.02-13.22.06-26.45,0-39.67-.04-7.27-4.67-11.98-11.88-12.08-7.7-.11-15.39-.02-23.52-.02,0,5.38.01,10.33,0,15.28-.04,13.7-7.38,21.13-20.95,21.15-14.97.02-29.94.04-44.91,0-12.87-.04-20.4-7.62-20.46-20.52-.02-5.1,0-10.2,0-15.61h-42.36c0,5,0,9.95,0,14.89-.02,13.88-7.37,21.23-21.25,21.24-14.85.01-29.69.03-44.54,0-12.93-.03-20.45-7.54-20.53-20.43-.03-5.11,0-10.22,0-16-2.49,0-4.79,0-7.09,0-5.74.01-11.48-.1-17.21.07-5.9.17-10.85,4.42-10.96,10.21-.29,14.44-.09,28.89-.09,43.8,5.67,0,11.11,0,16.55,0,13.43.03,20.85,7.41,20.86,20.81.02,14.47.03,28.94,0,43.41-.03,12.37-7.69,20.05-20.08,20.1-13.97.05-27.96-.38-41.91.13-11.69.43-20.11-3.38-24.18-14.84v-54.64ZM51.4,130.01c-7.73,0-15.45-.03-23.18,0-6.2.03-8.97,2.75-8.98,8.85-.03,14.71-.03,29.41,0,44.12.01,6.1,2.76,8.86,8.97,8.88,15.33.05,30.66.05,45.99,0,6-.02,8.73-2.76,8.75-8.68.04-14.83.04-29.66,0-44.49-.02-5.93-2.76-8.64-8.73-8.67-7.6-.05-15.2-.01-22.81-.01ZM264.2,28.16c-7.85,0-15.7-.04-23.55.01-5.7.04-8.56,2.76-8.59,8.48-.09,14.95-.09,29.9,0,44.86.03,5.55,2.81,8.34,8.31,8.37,15.7.08,31.4.08,47.1,0,5.56-.03,8.34-2.74,8.38-8.29.1-15.08.11-30.15,0-45.23-.04-5.51-2.94-8.16-8.47-8.2-7.73-.05-15.45-.01-23.18-.01ZM347.84,130.01c-7.73,0-15.45-.05-23.18.02-5.49.05-8.32,2.84-8.34,8.3-.05,15.08-.05,30.16,0,45.24.02,5.29,2.75,8.24,7.99,8.28,15.83.11,31.65.1,47.48,0,5.42-.03,8.2-3.01,8.21-8.49.04-14.95.05-29.91,0-44.87-.02-5.61-2.91-8.43-8.61-8.47-7.85-.05-15.7-.01-23.55-.01Z"></path><path class="cls-1" d="M256.14,291.72c-5.24,0-10.34-.14-15.43.11-1.11.05-2.61,1.24-3.14,2.3-3.59,7.12-6.95,14.35-10.42,21.52-4.45,9.2-12.23,10.23-18.81,2.51-.71-.83-1.48-1.62-2.87-3.13-.1,2.14-.21,3.53-.21,4.92-.01,18.59,0,37.17-.01,55.76,0,6.57-1.57,8.09-8.21,8.1-27.82,0-55.64.01-83.46,0-13.55,0-20.65-8.63-18.33-21.88,3.2-18.29,6.29-36.59,9.29-54.92,2.64-16.15,14.38-26.43,30.69-26.51,12.97-.07,25.95-.03,38.92-.05.24,0,.48-.11,1.31-.3,0-5.65.09-11.46-.13-17.25-.03-.64-1.86-1.64-2.92-1.74-14.23-1.29-25.87-11.17-28.6-24.98-.93-4.71-.8-9.62-1.18-14.89-1.94,0-3.9.06-5.85-.01-8.4-.32-14.83-6.73-15.03-15.1-.12-5.24-.06-10.48-.02-15.72.05-6.16,2.85-10.81,8.24-13.66,1.86-.98,2.42-2.01,2.39-4.01-.11-7.73-.09-15.47-.03-23.2.1-12.41,7.19-21.92,18.98-25.78,1.16-.38,2.54-1.21,3.06-2.23,3.58-7.02,9.33-9.92,17.04-9.89,22.58.08,45.16.03,67.74.03,3.74,0,7.49-.07,11.23.02,10.29.27,17.33,7.36,17.39,17.6.07,13.1.05,26.2-.02,39.3-.01,2.21-.5,4.42-.8,6.91,8.61,3.41,11.28,10.3,10.68,19.12-.24,3.6,0,7.23-.06,10.85-.15,9.25-6.6,15.63-15.89,15.78-1.6.03-3.21,0-5.38,0,0,2.42.02,4.61,0,6.79-.19,18.46-11.57,31-29.88,33.09-.92.1-2.46,1.16-2.48,1.81-.2,5.7-.11,11.41-.11,17.3h21.86c-2.47-4.96-1.22-9.27,1.5-13.53,2.48-3.88,4.57-8.01,6.99-11.93,3.29-5.32,9.02-7.22,14.13-3.7,5.21,3.59,8.99,3.29,14.46.02,4.79-2.87,6.44-5.52,6.13-10.86-.44-7.5,3.9-11.45,11.49-11.49,5.11-.03,10.23-.06,15.34.01,6.5.09,11.09,3.94,10.59,10.4-.52,6.63,2.14,9.6,7.63,12.76,4.68,2.69,7.64,2.49,11.83-.19,6.6-4.21,12.1-2.58,16.03,4.1,2.53,4.29,5.05,8.6,7.47,12.96,3.38,6.09,2.2,11.89-3.94,14.93-5.37,2.66-6.8,5.87-6.85,11.95-.05,6,1.67,8.77,6.69,11.28,6.18,3.09,7.51,8.86,4.19,14.88-2.59,4.69-5.27,9.33-8.05,13.91-3.44,5.67-9.23,7.5-14.69,3.74-5.01-3.44-8.62-3-13.79.07-4.84,2.86-6.76,5.53-6.45,11.13.41,7.58-3.89,11.31-11.59,11.35-3.35.02-6.69,0-10.24,0,0,1.63-.02,2.95,0,4.27.21,9.77-6.81,17.35-16.58,17.41-20.33.13-40.67.07-61,.04-4.17,0-6.51-2.08-6.52-5.54-.02-3.55,2.43-5.65,6.84-5.65,18.96-.03,37.92-.01,56.88-.01,8.82,0,12.47-5.71,7.62-13.12-2.81-4.29-3.2-8.5-2.99-13.1.11-2.43-.55-3.71-2.94-4.77-3.39-1.5-6.35-5.06-9.66-5.29-3.08-.21-6.3,2.99-9.59,4.35-4.35,1.79-9.27.29-11.84-3.78-3.33-5.26-6.47-10.66-9.37-16.17-2.52-4.79-1.25-10.89,3.66-12.94,7.27-3.05,8.69-8.07,7.45-14.89-.04-.23-.13-.46-.34-1.16ZM171.02,166.47c-3.63,6.37-8.89,11.92-15.27,16.5-.94.67-1.47,2.5-1.48,3.8-.1,13.84-.13,27.69-.04,41.54.09,13.28,8.56,21.62,21.89,21.65,15.59.04,31.18.03,46.78,0,13.73-.03,22.08-8.38,22.14-22.17.05-10.73.01-21.45.01-32.18,0-2.59,0-5.18,0-8.1-9.28.28-17.36-2.13-24.55-7.4-.56-.41-1.63-.13-2.46-.19-6.41-.52-13.16.05-19.15-1.82-9.42-2.95-18.32-7.55-27.86-11.63ZM193.81,315.02c-1.41,1.53-2.17,2.32-2.88,3.15-6.6,7.71-14.37,6.69-18.82-2.51-3.47-7.18-6.81-14.41-10.43-21.51-.57-1.11-2.28-2.29-3.49-2.32-7.98-.2-15.96-.2-23.94-.08-9.52.14-16.82,6.51-18.42,15.92-3.21,18.78-6.4,37.57-9.59,56.36-1.05,6.21.94,8.55,7.33,8.55,25.56.01,51.13,0,76.69,0,1.18,0,2.37-.11,3.55-.17v-57.39ZM351.84,261.18c-3.37,1.91-6.52,3.63-9.6,5.46-2.86,1.69-5.2,1.05-7.9-.75-4.62-3.09-9.44-5.95-14.43-8.37-2.98-1.44-4.61-3.19-4.6-6.46,0-3.59,0-7.18,0-10.74h-15.34c0,3.79-.05,7.27.01,10.76.05,3.15-1.51,4.89-4.28,6.3-5.06,2.59-10.04,5.39-14.77,8.53-2.87,1.91-5.3,2.35-8.24.53-2.94-1.83-5.99-3.46-9.24-5.32-2.59,4.49-5.05,8.75-7.62,13.2,3.32,1.92,6.29,3.73,9.34,5.39,2.89,1.58,3.69,3.86,3.51,7.13-.32,5.68-.35,11.4,0,17.08.21,3.45-.7,5.74-3.74,7.37-3.06,1.63-6,3.48-9.11,5.3,2.63,4.54,5.1,8.8,7.63,13.16,3.31-1.89,6.3-3.45,9.13-5.25,3.09-1.96,5.58-1.42,8.54.63,4.36,3.02,8.96,5.84,13.78,8.03,3.61,1.64,5.3,3.73,5.1,7.65-.17,3.3-.03,6.62-.03,9.8h15.33c0-3.6.05-6.95-.01-10.3-.07-3.56,1.53-5.51,4.86-7.05,4.92-2.27,9.62-5.13,14.11-8.2,2.83-1.94,5.24-2.51,8.22-.7,3.03,1.84,6.17,3.51,9.42,5.35,2.64-4.61,5.03-8.77,7.54-13.16-3.22-1.88-6.07-3.64-9.01-5.23-3.29-1.78-4.18-4.21-3.75-8.02.58-5.14.64-10.45.02-15.58-.49-4,.53-6.45,3.94-8.28,2.94-1.57,5.77-3.34,8.83-5.12-2.62-4.51-5.03-8.69-7.61-13.13ZM143.71,175.44c2.08-.67,3.98-.88,5.42-1.8,6.23-4,10.93-9.39,13.79-16.29,2.76-6.67,5.3-7.07,11.67-3.43,8.29,4.74,16.82,9.13,25.56,12.96,6.1,2.67,12.72,3.18,19.39,1.12,1.5-.46,3.97,0,5.12,1.03,7.43,6.57,15.69,8.54,25.33,6.02,5-1.31,6.53-2.53,6.54-7.75.02-11.97.01-23.94,0-35.91,0-6.72-1.68-8.43-8.35-8.44-25.31-.01-50.62,0-75.93,0-1,0-2-.01-2.99.08-2.67.25-4.62,1.66-4.86,4.34-.43,4.84-3.17,6.38-7.65,6.87-6.98.77-12.47,5.73-12.9,12.5-.58,9.28-.15,18.63-.15,28.69ZM186.71,261.42c0,3.34.47,6.41-.09,9.27-1.88,9.74,2.11,16.07,10.8,19.99.34.15.6.55.93.6.79.11,1.82.42,2.37.06,3.65-2.37,7.22-4.87,10.75-7.42.52-.37.99-1.21,1-1.84.07-6.82.04-13.64.04-20.67h-25.8ZM142.76,210.07v-23.92c-1.42,0-2.64,0-3.85,0-4.77.03-5.96,1.19-5.99,5.92-.03,4.36.01,8.71,0,13.07-.01,3.22,1.6,4.84,4.77,4.92,1.59.04,3.18,0,5.07,0ZM256.44,210.06c2.16,0,3.9.1,5.62-.02,2.59-.18,4.2-1.58,4.23-4.27.07-5.1.07-10.21,0-15.31-.04-2.67-1.6-4.11-4.22-4.27-1.82-.11-3.65-.02-5.63-.02v23.89ZM182.31,310.94c3.24-3.86,6.06-7.23,9.22-11-6.23-2.69-9.97-9.69-18.28-7.93,2.98,6.22,5.85,12.22,9.06,18.94ZM216.95,310.95c3.2-6.71,6.09-12.77,9.05-18.99-8.45-1.52-12.16,5.33-18.27,8,3.21,3.83,5.99,7.14,9.22,10.99Z"></path><path class="cls-1" d="M129.61,62.02c5.86-5.95,10.91-11.12,16.02-16.23,3.25-3.25,6.64-3.56,9.09-.97,2.37,2.5,2,5.69-1.13,8.84-6.24,6.28-12.49,12.54-18.78,18.77-3.45,3.41-6.28,3.44-9.66.15-2.95-2.87-5.87-5.77-8.72-8.74-2.68-2.79-2.86-5.93-.62-8.28,2.39-2.51,5.63-2.42,8.55.45,1.76,1.73,3.27,3.72,5.25,6.01Z"></path><path class="cls-1" d="M45.16,164.02c6.11-6.12,11.4-11.39,16.65-16.69,2.38-2.41,5.01-3.32,8.01-1.26,2.83,1.94,3.22,5.77.58,8.49-6.77,6.98-13.66,13.84-20.62,20.63-2.51,2.45-5.45,2.46-8.03.04-3.36-3.15-6.61-6.43-9.78-9.79-2.42-2.56-2.4-5.83-.22-8.04,2.28-2.31,5.39-2.41,7.99.11,1.95,1.9,3.52,4.18,5.43,6.5Z"></path><path class="cls-1" d="M258.35,61.86c5.75-5.78,10.82-10.92,15.94-16.02,3.29-3.27,6.63-3.63,9.1-1.07,2.49,2.58,2.06,5.74-1.3,9.11-6.07,6.1-12.14,12.19-18.24,18.26-3.9,3.88-6.57,3.85-10.48-.02-2.84-2.81-5.7-5.59-8.44-8.48-2.48-2.62-2.58-5.74-.46-8.02,2.29-2.46,5.52-2.52,8.28.09,1.89,1.79,3.53,3.86,5.59,6.15Z"></path><path class="cls-1" d="M342.34,163.91c5.53-5.57,10.35-10.42,15.17-15.26.79-.79,1.55-1.64,2.43-2.32,2.52-1.95,5.16-1.97,7.43.25,2.27,2.22,2.58,5.16.44,7.4-7.06,7.38-14.32,14.58-21.67,21.68-2.15,2.08-4.94,1.82-7.12-.22-3.55-3.31-7-6.75-10.32-10.3-2.27-2.43-2.11-5.55.04-7.73,2.16-2.19,5.3-2.41,7.72-.15,2.07,1.93,3.78,4.25,5.87,6.65Z"></path><path class="cls-1" d="M193.83,204.63c0-1.74-.19-3.51.04-5.22.44-3.22,2.37-5.33,5.66-5.38,3.3-.05,5.47,1.99,5.78,5.21.34,3.57.36,7.23.02,10.8-.3,3.12-2.11,5.27-5.63,5.3-3.23.03-5.49-1.98-5.87-5.49-.19-1.72-.03-3.48-.03-5.22,0,0,.02,0,.03,0Z"></path><path class="cls-1" d="M307.47,274.92c11.42-.1,20.8,9.16,20.79,20.53,0,11.22-9.16,20.4-20.44,20.51-11.32.1-20.56-8.91-20.68-20.17-.13-11.56,8.84-20.77,20.34-20.87ZM307.49,304.69c5.1.07,9.34-3.95,9.51-9.02.17-5.14-4.16-9.51-9.4-9.49-5.17.02-9.2,4.04-9.23,9.2-.02,5.18,3.96,9.24,9.12,9.31Z"></path></svg>