<svg xmlns="http://www.w3.org/2000/svg" id="Layer_1" data-name="Layer 1" viewBox="0 0 400 400"><defs><style> .cls-1 { fill: #fff; stroke-width: 0px; } </style></defs><path class="cls-1" d="M8,156.94c1.75.03,3.52.27,5.23.05,10.39-1.35,19.51,1.47,27.99,7.54,4.94,3.54,10.45,6.31,15.79,9.28,1.08.6,2.62.98,3.79.74,4.38-.92,8.72-2.09,13.04-3.27,2.68-.73,3.14-2.66.89-4.41-13.11-10.25-17.78-23.96-17.41-40.17.22-9.58.51-19.01,5.49-27.5,8.25-14.08,20.52-21.7,36.95-22.37.74-.03,1.48-.07,2.97-.14-1.92-4.57-3.8-8.81-5.44-13.15-.4-1.07-.55-2.94.07-3.58,10.35-10.62,20.85-21.11,31.41-31.72,5.9,3.83,11.58,7.42,17.14,11.19,1.67,1.13,2.9,1.04,4.71.22,5.89-2.67,11.84-5.22,17.91-7.44,2.23-.82,3.09-1.93,3.51-4.14,1.21-6.34,2.65-12.64,4.04-19.13h47.15c1.37,6.38,2.85,12.78,4.07,19.23.43,2.27,1.45,3.24,3.62,4.04,5.94,2.2,11.82,4.63,17.55,7.33,2.13,1.01,3.52.87,5.36-.39,5.36-3.64,10.83-7.1,16.43-10.75.78.67,1.55,1.24,2.22,1.92,9.54,9.52,19.03,19.08,28.63,28.54,1.54,1.52,2.02,2.74,1.02,4.82-1.98,4.13-3.65,8.4-5.46,12.61,4.37.64,8.49.85,12.38,1.9,18.42,4.93,31.78,21.42,32.68,40.59.5,10.57.99,21.23-3.72,31.25-2.91,6.2-6.94,11.47-12.18,15.9-1.11.94-1.7,2.47-2.54,3.73,1.31.72,2.54,1.7,3.93,2.1,9.43,2.74,18.89,5.39,28.37,7.96.93.25,2.18-.02,3.08-.45,3.25-1.58,6.64-3.01,9.56-5.08,6.9-4.86,14.51-5.35,23.08-4.34v3.37c0,27.69-.05,55.39.08,83.08.01,2.87-1.05,4.1-3.43,5.28-34.92,17.36-69.78,34.84-104.7,52.18-2.43,1.21-3.4,2.58-3.54,5.31-.41,8.27-6.81,15.37-15.05,16.75-2.35.39-3.33,1.1-3.69,3.6-1.14,7.85-7.44,13.75-15.43,15.25-1.09.2-2.58,1.44-2.83,2.45-2.48,10.08-7.71,14.98-17.88,16.33-.78,2.56-1.34,5.24-2.39,7.71-2.47,5.8-7.51,8.67-13.08,10.83h-8.24c-4.01-2.41-8.21-4.56-11.96-7.32-1.97-1.45-3.19-1.85-5.51-.77-11.4,5.32-24.38-1.38-26.71-13.74-.42-2.24-1.3-3.12-3.47-3.47-4.89-.79-9.11-3.16-11.66-7.37-1.88-3.11-1.93-7.66-4.32-10.02-2.5-2.46-7.12-2.61-10.3-4.59-5.17-3.22-7.27-8.61-7.99-14.47-10.39-1.55-16.67-7.11-18.37-17.47-.12-.74-.7-1.63-1.32-2.01-5.62-3.45-11.29-6.81-16.96-10.2-2.51,4.83-2.53,4.54-8.06,4.91-5.99.4-11.24-1.89-16.64-3.69-16.64-5.56-33.26-11.21-49.88-16.82,0-42.67,0-85.34,0-128.01ZM378.94,182.74c-1.91.96-3.21,1.6-4.5,2.27-35.28,18.56-70.58,37.07-105.78,55.77-4.16,2.21-8.23,3.38-12.81,2.69-2.45-.37-4.9-.86-7.29-1.53-10.67-3-21.32-6.06-31.96-9.16-7.36-2.15-14.56-1.92-21.48,1.49-11.17,5.51-22.31,11.08-33.4,16.75-5.11,2.61-6.82,8.24-4.2,12.94,2.47,4.43,7.52,5.49,12.6,2.5,6.66-3.91,13.26-7.93,19.89-11.89,12.18-7.27,22.61-6.3,33.15,3.16,16.34,14.65,32.69,29.31,48.92,44.08,2.08,1.89,3.55,2.1,6.08.82,32.37-16.31,64.8-32.51,97.26-48.63,2.58-1.28,3.59-2.67,3.57-5.63-.14-20.45-.08-40.91-.08-61.36,0-1.21,0-2.41,0-4.28ZM186.01,224.91c-11.7-4.47-22.96-7.44-34.48-5.5-15.83,2.66-31.46,6.49-47.16,9.93-.97.21-2.25,1.26-2.52,2.17-5.29,18.17-10.48,36.37-15.58,54.6-.22.77.3,2.27.94,2.68,5.67,3.57,11.46,6.97,17.71,10.73,4.55-4.74,8.69-9.8,13.57-14,11.3-9.74,28.12-3.81,31.11,10.79.48,2.33,1.39,3.24,3.77,3.61,5.18.82,9.39,3.64,11.99,8.13,1.7,2.93,1.67,7.21,3.89,9.4,2.23,2.21,6.56,2.13,9.46,3.89,5.44,3.3,7.93,8.71,8.59,15,5.88.69,10.34,3.36,14.37,7.47,5.37,5.48,11.11,10.64,17.1,15.43,3.82,3.06,8.36,2.2,10.6-1.03,2.12-3.05,1.25-6.49-2.58-9.71-6.78-5.7-13.61-11.34-20.4-17.01-3.5-2.93-6.99-5.87-10.65-8.95,2.77-3.29,5.3-6.3,7.92-9.42,10.48,8.72,20.62,17.19,30.79,25.63,1.34,1.11,2.69,2.28,4.22,3.06,3.33,1.69,7.48.58,9.33-2.27,1.83-2.81,1.25-5.97-1.62-8.72-.54-.52-1.15-.95-1.73-1.43-10.04-8.38-20.09-16.77-30.38-25.36,2.69-3.21,5.21-6.24,7.9-9.44,1.85,1.52,3.47,2.85,5.08,4.19,9.11,7.58,18.19,15.19,27.32,22.74,3.9,3.23,8.75,3.24,11.4.16,2.76-3.2,2.04-6.98-2.1-10.7-16.32-14.69-32.64-29.37-48.96-44.05-6.07-5.46-11.34-6-18.35-1.83-6.97,4.13-13.91,8.3-20.85,12.49-4.95,2.99-10.27,3.83-15.83,2.48-8.27-2.01-14.5-8.86-15.56-16.81-1.31-9.8,2.16-17.97,10.18-22.32,8.87-4.81,17.99-9.13,27-13.67,1.29-.65,2.57-1.33,4.5-2.33ZM138.18,208.49c.32.07.68.25,1.01.21.99-.11,1.97-.3,2.95-.48,11.67-2.13,23.28-2.26,34.82.95,14.48,4.02,29.01,7.91,43.49,11.93,11.04,3.06,22.04,6.26,33.07,9.34,1.54.43,3.17.56,4.76.74,2.38.27,3.34-.78,3.3-3.23-.11-6.73.14-13.48-.1-20.2-.36-9.97-5.51-16.2-15.21-18.69-10.01-2.57-20.02-5.16-30.1-7.45-3.3-.75-4.49-2.13-4.2-5.52.32-3.84.19-7.73,0-11.59-.12-2.51.59-4.03,2.91-5.35,7.48-4.27,12.83-10.61,14.54-19.05,1.96-9.7,2.11-19.6-.73-29.24-3.61-12.25-16-21.55-28.46-21.73-13.67-.19-26.51,8.56-29.68,21.72-1.75,7.25-1.54,15.04-1.59,22.6-.05,8.95,3.27,17.32,10.73,21.98,7.2,4.51,8.51,10.02,7.59,17.31-.14,1.1-.18,2.27,0,3.36.58,3.38-.86,4.76-4.16,5.51-10.2,2.32-20.34,4.91-30.46,7.53-9.72,2.52-15.31,10.06-14.51,19.36ZM341.83,188.18c-9.53-2.38-17.89-4.63-26.35-6.49-3.33-.73-4.93-1.88-4.54-5.6.39-3.7.24-7.48.02-11.21-.17-2.79.63-4.45,3.19-5.95,7.79-4.56,13.1-11.32,14.51-20.31,1.47-9.37,1.74-18.89-1.13-28.13-3.77-12.14-16.58-21.55-28.73-21.35-13.96.24-26.09,8.67-29.36,21.67-1.61,6.4-1.47,13.3-1.65,19.98-.34,12.52,5.01,22.12,15.83,28.5,1.94,1.15,2.84,2.38,2.72,4.7-.19,3.98-.34,8,.03,11.96.33,3.62-1,5.02-4.46,5.69-5.51,1.07-10.93,2.66-17.08,4.21,11.17,11,8.68,24.58,9.04,38.09,22.7-11.95,44.84-23.61,67.94-35.77ZM133.77,185.65c-5.84-1.47-11.56-3.02-17.35-4.32-2.46-.55-3.57-1.48-3.42-4.21.25-4.35.18-8.73,0-13.08-.1-2.3.72-3.59,2.7-4.72,7.37-4.18,12.75-10.3,14.61-18.56,2.32-10.3,2.52-20.82-.94-30.98-4.12-12.09-16.48-20.86-28.41-20.65-14.1.24-25.97,8.67-29.5,22.02-1.49,5.66-1.24,11.81-1.53,17.76-.67,13.52,4.62,23.91,16.41,30.9,1,.59,1.84,2.29,1.89,3.51.21,4.85.01,9.72.12,14.58.05,1.99-.64,2.83-2.63,3.24-3.53.72-7,1.79-11.25,2.92,10.36,6.05,19.88,11.7,29.52,17.15,2.27,1.28,3.11,2.74,2.91,5.29-.24,3.07-.06,6.17-.06,9.52,5.16-1.15,10.21-2.44,15.33-3.35,2.57-.46,3.28-1.43,3.47-4.09.32-4.42,1-8.94,2.43-13.11,1.17-3.42,3.64-6.39,5.7-9.82ZM175.94,170.55c-1.39-1.92-2.14-3.5-3.35-4.52-6.79-5.66-11.56-12.62-14.21-21.07-2.82-9.02-2.5-18.31-1.81-27.46,1.4-18.54,11.06-31.72,28.46-38.07,17.2-6.27,33.07-2.47,45.44,11.03,15.71,17.15,15.26,37.55,9.02,58.31-2.19,7.28-7.33,12.94-13.3,17.7-2.46,1.96-2.56,4.04-.22,4.66,7.46,1.99,14.96,3.83,22.47,5.61,1.01.24,2.21-.12,3.27-.39,6.29-1.54,12.58-3.08,18.83-4.75,1.17-.31,3.1-1.25,3.08-1.83-.05-1.23-.99-2.57-1.87-3.6-3.15-3.66-7.16-6.79-9.55-10.88-9.63-16.52-8.73-33.99-3.59-51.67.41-1.4.82-3.36.18-4.43-13.34-22.5-33.29-34.7-59.33-34.63-25.39.07-45.03,11.86-58.44,33.66-1.32,2.15-1.31,3.82-.52,6.18,5.2,15.5,5.6,31.04-.74,46.34-2.62,6.32-7.05,11.41-12.42,15.66-2.46,1.95-2.62,4.11-.33,4.72,7.58,2.03,15.2,3.88,22.83,5.72.66.16,1.46-.16,2.18-.33,7.49-1.85,14.97-3.72,23.94-5.95ZM267.46,89.1c4.47-2.86,8.67-5.49,12.79-8.22.77-.51,1.47-1.34,1.85-2.18,1.89-4.2,3.79-8.41,5.37-12.73.39-1.06.02-2.98-.75-3.79-5.24-5.51-10.73-10.79-16.03-16.24-1.4-1.44-2.45-1.6-4.12-.45-4.31,2.96-8.68,5.86-13.18,8.53-1,.6-2.94.71-3.9.14-9.24-5.6-19.09-9.63-29.54-12.34-1.19-.31-2.61-1.82-2.93-3.03-1.28-4.93-2.24-9.96-3.19-14.97-.36-1.9-1.14-2.74-3.21-2.72-7.23.1-14.47.11-21.7,0-2.2-.04-3.08.8-3.46,2.87-.89,4.77-2.12,9.48-2.92,14.27-.39,2.31-1.33,3.38-3.64,3.9-10.16,2.31-19.69,6.25-28.49,11.84-1.91,1.21-3.21,1.08-4.99-.13-4.82-3.29-9.78-6.38-14.95-9.73-6.3,6.32-12.49,12.44-18.52,18.72-.58.61-.5,2.32-.13,3.3,1.59,4.19,3.35,8.31,5.17,12.41.42.95,1.19,1.9,2.05,2.49,4.08,2.81,8.24,5.51,12.64,8.42,15.99-23.52,38.34-37.01,67.4-37.21,29.24-.2,51.81,13.1,68.38,36.87ZM46.9,285.12c7.5-29.99,14.95-59.75,22.38-89.46-.46-.4-.71-.7-1.02-.88-13.87-8.11-27.71-16.26-41.66-24.22-1.63-.93-3.84-.85-6.2-1.32,0,2.34,0,3.82,0,5.3,0,24.68,0,49.36,0,74.03,0,8.23-.09,16.45.09,24.68.03,1.25,1.01,3.22,2.02,3.59,7.93,2.89,15.98,5.47,24.38,8.28ZM71.32,293.23c2.97-10.43,5.85-20.59,8.76-30.74,4.59-16.03,9.25-32.05,13.72-48.12.42-1.5.34-4.19-.57-4.83-3.9-2.77-8.19-4.98-12.76-7.63-7.34,29.36-14.54,58.14-21.79,87.13,4.39,1.46,8.37,2.78,12.65,4.2ZM194.15,355.32c-1.49-1.93-2.61-4.26-4.45-5.57-2.59-1.84-5.58-1.15-7.88,1-3.72,3.5-7.41,7.05-10.87,10.8-2.85,3.08-2.72,7.11-.11,9.76,2.73,2.76,6.79,2.8,10.04-.23,3.55-3.31,7-6.76,10.27-10.34,1.2-1.31,1.79-3.17,3-5.42ZM138.62,299.5c-1.69-2.02-2.91-4.21-4.76-5.49-2.52-1.74-5.39-.99-7.57,1.02-3.57,3.3-7,6.75-10.38,10.24-3.32,3.42-3.56,7.39-.81,10.3,2.91,3.09,6.92,2.95,10.57-.52,3.25-3.09,6.48-6.22,9.48-9.54,1.33-1.48,2.06-3.5,3.47-6ZM157.73,354.74c.52-.16,2-.2,2.79-.96,4.57-4.37,9.25-8.69,13.35-13.5,2.15-2.53,1.24-5.78-1.21-8.09-2.44-2.31-5.69-2.92-8.17-.77-4.67,4.07-9.27,8.38-13.09,13.22-3.24,4.11.36,10,6.32,10.09ZM150.58,311.35c-2.1.58-3.47.55-4.17,1.21-4.68,4.44-9.48,8.81-13.68,13.68-2.14,2.49-1.21,5.72,1.17,8.1,2.27,2.28,6.04,2.81,8.5.6,4.44-3.98,8.76-8.17,12.55-12.75,1.17-1.41,1.22-4.71.41-6.52-.86-1.92-3.36-3.11-4.79-4.33ZM195.9,374.04c3.25,3.29,6.44,6.95,11.52,5.03,1.82-.69,3.84-3.07,4.2-4.97,1.05-5.57-4.2-7.13-7.07-10.2-2.96,3.47-5.68,6.66-8.65,10.14Z"></path></svg>